<svg version="1.1" id="Layer_1" xmlns="http://www.w3.org/2000/svg" xmlns:xlink="http://www.w3.org/1999/xlink" x="0px" y="0px"
	 width="100%" viewBox="0 0 274 153" enable-background="new 0 0 274 153" xml:space="preserve">
<path fill="#B9CBD5" opacity="1.000000" stroke="none" 
	d="
M232.000000,1.000000 
	C246.319199,1.000000 260.638397,1.000000 274.978790,1.000000 
	C274.978790,51.935535 274.978790,102.871078 274.978790,153.903320 
	C183.666748,153.903320 92.333382,153.903320 1.000000,153.903320 
	C1.000000,150.967194 1.000000,147.970169 1.335142,144.392868 
	C5.114877,135.540573 8.559469,127.268570 12.001993,118.998268 
	C11.999924,118.999977 11.998046,119.004616 12.334381,118.917542 
	C13.448380,117.219429 14.226045,115.608391 15.001817,113.998680 
	C14.999924,114.000000 14.998604,114.004128 15.335333,113.948425 
	C16.795815,112.594574 17.919567,111.296432 19.313072,109.827812 
	C20.373487,108.439468 21.164154,107.221603 22.301836,105.991852 
	C23.433598,105.319969 24.218346,104.659981 25.001507,104.000000 
	C24.999924,104.000000 24.999043,104.002876 25.341261,103.990105 
	C26.457222,103.317513 27.230965,102.657692 28.002295,101.998932 
	C27.999884,102.000000 27.996572,102.004173 28.360882,101.993240 
	C31.481453,99.161942 35.066166,96.769234 36.795689,93.418846 
	C39.258915,88.647133 40.360481,83.172523 42.314804,77.840256 
	C43.723526,76.470322 44.861179,75.258316 46.357544,73.974373 
	C53.774765,70.929176 60.833271,67.955917 67.964508,65.390350 
	C68.097191,66.795341 68.060112,67.809822 68.233200,68.787071 
	C69.198135,74.235252 72.945824,77.252815 78.378387,77.018166 
	C83.383179,76.802002 86.996681,73.400993 87.313675,68.043373 
	C87.575775,63.613503 87.004646,59.268127 82.365135,56.922947 
	C78.104797,54.769432 73.983292,55.839890 69.075974,59.883987 
	C68.506104,53.381603 68.255043,47.189045 68.001968,40.998169 
	C67.999962,40.999847 67.996628,41.004089 68.360199,40.992767 
	C70.150925,39.975101 71.578079,38.968758 73.243019,37.747036 
	C74.307877,37.356140 75.134949,37.180622 76.280350,36.959114 
	C77.400833,36.274876 78.202972,35.636631 79.002556,34.999115 
	C79.000000,34.999847 78.997932,35.004601 79.337143,34.946114 
	C84.452667,30.257835 89.228981,25.628042 94.002640,20.999050 
	C94.000000,20.999853 93.997581,21.004684 94.367477,20.942005 
	C98.082527,20.640179 101.448608,20.048058 104.767929,20.244829 
	C109.715034,20.538097 114.614029,21.591045 119.560417,21.959106 
	C130.137177,22.746124 140.782761,22.861778 151.301239,24.095535 
	C159.201324,25.022173 166.212753,24.266361 173.258026,20.194130 
	C176.383347,18.387665 180.908737,18.342548 184.738617,18.558990 
	C191.830032,18.959755 198.876373,20.779491 205.943329,20.790186 
	C211.346863,20.798367 217.296066,20.292437 221.002167,14.999134 
	C221.000000,14.999924 220.997101,15.003905 221.361237,14.992246 
	C225.675232,13.708003 228.466049,11.378780 229.002197,6.997969 
	C229.000000,6.999848 228.997894,7.005005 229.334152,6.908914 
	C230.446945,4.875215 231.223465,2.937608 232.000000,1.000000 
M178.176300,35.916630 
	C178.176300,35.916630 178.192093,35.688038 178.192093,35.688038 
	C178.192093,35.688038 177.998779,35.999306 177.824081,36.084698 
	C177.824081,36.084698 177.809402,36.312836 177.809402,36.312836 
	C177.809402,36.312836 178.000626,36.000961 178.176300,35.916630 
M231.386505,76.966766 
	C231.577194,76.828773 231.767883,76.690781 231.958572,76.552795 
	C231.847137,76.512314 231.688919,76.404160 231.632477,76.443192 
	C231.402542,76.602219 231.203796,76.806320 230.612442,77.034454 
	C230.422333,77.171959 230.232224,77.309464 230.042130,77.446968 
	C230.153214,77.487091 230.310989,77.594528 230.367203,77.555542 
	C230.596283,77.396645 230.794250,77.192932 231.386505,76.966766 
M161.659424,110.621422 
	C161.197784,110.489853 160.736145,110.358292 160.274506,110.226730 
	C160.233322,110.426575 160.192123,110.626419 160.150940,110.826271 
	C160.765457,110.886055 161.379990,110.945839 162.398865,111.463318 
	C163.294189,111.816040 164.189499,112.168762 165.084824,112.521477 
	C165.171722,112.192802 165.258621,111.864128 165.345520,111.535454 
	C164.231293,111.355377 163.117050,111.175301 161.659424,110.621422 
M86.326904,100.128502 
	C86.222725,98.469528 86.118546,96.810547 86.014366,95.151573 
	C85.534531,95.150932 85.054695,95.150299 84.574860,95.149658 
	C84.453712,96.841248 84.583801,98.605934 84.120567,100.197983 
	C83.825691,101.211395 82.650574,101.968689 81.870163,102.840828 
	C81.177132,101.920883 80.205322,101.092827 79.863922,100.056984 
	C79.465988,98.849648 79.619270,97.460625 79.533363,96.150444 
	C79.001251,96.139877 78.469131,96.129318 77.937012,96.118752 
	C77.937012,98.294228 77.424103,100.658371 78.128922,102.574600 
	C78.553345,103.728500 80.832542,104.697372 82.352219,104.818092 
	C84.032265,104.951546 86.999847,105.693817 87.008324,102.294533 
	C88.271210,103.253479 89.534096,104.212425 91.216438,105.489876 
	C91.561371,101.604980 91.993095,99.071648 91.949989,96.546410 
	C91.910126,94.211143 92.906891,91.126488 88.419205,89.997429 
	C88.249718,92.353737 88.268280,94.268578 87.932365,96.119080 
	C87.631523,97.776375 86.940239,99.362785 86.326904,100.128502 
M139.655838,102.925369 
	C139.481064,100.905571 139.306274,98.885765 138.850174,96.140060 
	C136.598297,95.696342 134.346405,95.252632 132.258209,94.841164 
	C132.258209,100.011742 132.258209,104.427788 132.258209,107.989250 
	C134.141190,106.848618 135.838425,105.885735 137.458450,104.806915 
	C138.102051,104.378326 138.574554,103.692802 139.655838,102.925369 
M136.040634,76.000412 
	C136.061600,72.524147 135.892029,69.033287 136.156754,65.575684 
	C136.425339,62.067673 137.472748,59.050056 142.053162,59.169323 
	C142.940765,59.192429 143.864441,57.829853 144.771469,57.106472 
	C141.430756,56.270573 138.443832,57.374443 136.015671,56.637405 
	C132.867889,55.681931 132.109329,56.380604 132.109161,59.236111 
	C132.108887,64.037132 131.910889,68.851891 132.243164,73.629784 
	C132.329330,74.868683 134.074753,75.992195 135.302963,77.344734 
	C135.630035,77.395073 135.857605,77.251892 136.040634,76.000412 
M207.383560,95.140533 
	C212.839935,98.169479 216.817627,94.847420 221.058151,92.908340 
	C221.058151,96.881714 221.058151,100.855087 221.058151,105.647530 
	C223.362167,103.097313 224.787964,101.519157 225.462387,100.772667 
	C224.608887,97.327431 223.872238,94.185883 222.972397,91.091789 
	C222.910995,90.880653 221.625519,91.025513 220.128204,91.040573 
	C208.675400,91.814919 197.222595,92.589264 185.769791,93.363609 
	C192.749039,93.142906 194.818588,97.736916 195.199677,104.108948 
	C196.226517,100.206520 195.022949,95.151985 202.229416,96.940102 
	C203.523773,97.170364 204.818130,97.400635 205.566849,97.533829 
	C203.742142,99.471550 202.160385,101.151291 200.578613,102.831032 
	C203.179550,103.626228 205.780487,104.421432 209.478516,105.552055 
	C208.223404,101.098213 207.398285,98.170212 207.383560,95.140533 
M169.315201,105.243622 
	C169.766022,102.227859 170.216843,99.212105 170.613647,96.557747 
	C166.449295,96.360229 162.751724,95.811310 159.153137,96.193748 
	C157.665237,96.351868 155.380325,98.445122 155.299713,99.770309 
	C155.218292,101.108864 157.176895,102.992668 158.686539,103.886299 
	C160.144440,104.749313 162.169586,104.654091 164.437683,105.491692 
	C171.699875,108.787445 178.962067,112.083199 186.664780,115.578873 
	C183.609329,111.260216 181.862701,110.337753 169.315201,105.243622 
M184.674896,55.995544 
	C185.361526,55.912640 186.048172,55.829735 186.734818,55.746830 
	C186.727631,55.541283 186.720459,55.335739 186.713272,55.130196 
	C185.831665,55.089226 184.950043,55.048252 183.955460,54.138290 
	C183.941833,51.809723 183.928223,49.481152 184.558807,46.604355 
	C188.743423,46.237247 192.928040,45.870140 197.112656,45.503036 
	C197.059860,45.072609 197.007065,44.642185 196.954269,44.211758 
	C188.370926,44.876732 179.787598,45.541702 171.204269,46.206676 
	C171.244247,46.701141 171.284225,47.195602 171.324203,47.690067 
	C174.226807,47.463619 177.129410,47.237175 179.965408,47.944744 
	C179.960999,55.555130 179.844971,63.167686 179.992752,70.775116 
	C180.086212,75.585770 182.749649,77.381798 186.935684,76.095665 
	C185.925476,73.535873 184.328445,71.029968 184.031281,68.378380 
	C183.574478,64.302429 184.010513,60.126415 184.674896,55.995544 
M123.874680,74.043419 
	C123.881218,68.901711 124.155663,63.742245 123.816460,58.623444 
	C123.498230,53.820961 124.408432,50.924622 130.117264,51.748909 
	C131.062164,51.885345 132.235489,50.439880 133.303253,49.725452 
	C132.157654,49.141544 131.029495,48.097828 129.863403,48.053558 
	C124.894615,47.864914 119.908279,47.831921 114.942535,48.056248 
	C113.450684,48.123642 112.004776,49.208260 110.537827,49.826874 
	C111.950745,50.510815 113.389694,51.817131 114.771576,51.759312 
	C118.567917,51.600475 119.675400,53.133713 119.525017,56.760948 
	C119.284782,62.555576 119.409355,68.369843 119.556145,74.171341 
	C119.579285,75.085693 120.530182,75.976570 121.052124,76.878296 
	C121.974579,76.227783 122.897041,75.577278 123.874680,74.043419 
M173.957321,68.296249 
	C173.923737,66.308250 174.502533,64.019867 173.710007,62.404118 
	C172.580414,60.101143 170.812531,57.320293 168.651627,56.502510 
	C165.536346,55.323547 161.630341,55.028717 158.691849,59.170177 
	C162.506256,60.838055 168.494019,56.252117 169.665405,63.050049 
	C166.386108,64.092796 162.953079,64.521027 160.387878,66.242462 
	C158.782684,67.319656 157.335480,70.734306 157.898987,72.392853 
	C158.557877,74.332108 161.349075,76.510498 163.451035,76.786026 
	C167.286530,77.288811 171.295685,76.466599 175.177887,76.200836 
	C174.783844,73.937202 174.369705,71.558212 173.957321,68.296249 
M103.935570,71.395782 
	C103.937538,72.059494 103.756226,72.794006 103.979561,73.372215 
	C104.447655,74.584084 105.128738,75.713676 105.722359,76.877052 
	C106.438736,75.664261 107.669693,74.493446 107.772720,73.230614 
	C108.055069,69.769760 108.062897,66.255745 107.811874,62.789391 
	C107.439484,57.647099 103.965782,55.219570 98.864388,56.071205 
	C96.574921,56.453415 94.241043,56.569611 91.097954,56.891430 
	C91.097954,62.595608 91.044479,68.818314 91.180199,75.036896 
	C91.193855,75.662659 92.352554,76.263428 92.979858,76.875801 
	C93.631233,76.110138 94.796341,75.376122 94.845779,74.573387 
	C95.069817,70.935692 94.525620,67.192368 95.196503,63.665615 
	C95.522110,61.953930 97.715576,59.859756 99.438080,59.425785 
	C100.486710,59.161594 102.970078,61.484974 103.517639,63.087322 
	C104.286140,65.336205 103.853966,67.995392 103.935570,71.395782 
M153.056793,71.312241 
	C153.056793,66.396950 153.056793,61.481659 153.056793,55.892807 
	C150.310455,56.161972 148.279495,56.361027 147.230942,56.463795 
	C147.966599,59.823666 148.787827,62.384777 149.032547,64.999840 
	C149.324203,68.116631 148.996033,71.288483 149.215225,74.416939 
	C149.275192,75.272827 150.335007,76.058655 150.935989,76.876625 
	C151.628433,76.162598 152.521622,75.549828 152.949127,74.702179 
	C153.284775,74.036690 153.044815,73.080902 153.056793,71.312241 
M123.879059,96.905655 
	C124.882210,97.738739 126.308380,98.385292 126.779228,99.453087 
	C127.341652,100.728561 127.086487,102.364540 127.185478,103.844353 
	C127.541946,103.811249 127.898415,103.778145 128.254883,103.745041 
	C128.254883,101.501289 128.254883,99.257545 128.254883,96.652061 
	C125.189034,96.120583 121.961143,95.561012 118.120407,94.895210 
	C118.303864,98.774864 118.448349,101.830299 118.622757,105.518364 
	C120.377762,102.113556 121.667168,99.612045 123.879059,96.905655 
M146.574860,97.123573 
	C149.543076,93.668129 143.341553,94.958824 143.618149,92.543556 
	C143.202866,96.450058 143.479980,100.215706 144.310593,103.855019 
	C144.452881,104.478394 146.957108,104.562675 147.169067,104.612671 
	C146.646774,101.774544 146.242294,99.576523 146.574860,97.123573 
M209.225006,133.913773 
	C207.081970,133.913773 204.938934,133.913773 202.350754,133.913773 
	C207.490616,137.228973 218.943726,134.336807 224.735626,128.261276 
	C219.411697,130.257568 214.719650,132.016907 209.225006,133.913773 
M233.538895,84.736450 
	C238.639801,83.124687 243.740707,81.512924 248.147141,80.120590 
	C244.284943,77.672928 236.932892,79.388367 230.101089,85.634552 
	C231.505936,85.330963 232.220169,85.176613 233.538895,84.736450 
M96.746513,96.666664 
	C95.935081,96.777725 94.415268,96.895256 94.416222,96.998901 
	C94.437653,99.346603 94.625641,101.692802 94.891800,105.678070 
	C97.716904,102.034470 99.724579,99.445129 101.732254,96.855782 
	C101.361374,96.577911 100.990501,96.300041 100.619621,96.022171 
	C99.494148,96.330566 98.368675,96.638962 96.746513,96.666664 
M213.210785,53.993813 
	C215.953049,53.569248 218.695312,53.144688 221.437576,52.720123 
	C221.396454,52.397522 221.355316,52.074921 221.314194,51.752319 
	C214.379639,52.242268 207.445084,52.732216 200.510529,53.222164 
	C200.513016,53.480694 200.515518,53.739223 200.518005,53.997753 
	C204.438995,53.997753 208.360001,53.997753 213.210785,53.993813 
M153.414703,39.001579 
	C152.786514,39.075272 152.158325,39.148964 151.530121,39.222656 
	C151.563675,39.608681 151.597214,39.994709 151.630753,40.380733 
	C159.015915,39.863976 166.401062,39.347214 173.786209,38.830456 
	C173.754745,38.445637 173.723297,38.060818 173.691833,37.675999 
	C167.196411,38.116867 160.700989,38.557735 153.414703,39.001579 
M251.085938,97.131775 
	C252.594452,93.204010 254.669861,89.352562 253.305145,83.701706 
	C251.760010,88.757019 250.573059,92.482521 249.548004,96.252045 
	C249.451538,96.606758 250.374359,97.238647 251.085938,97.131775 
M156.972839,78.998863 
	C153.204803,78.998863 149.436768,78.998863 145.668732,78.998863 
	C145.683868,79.208679 145.699020,79.418495 145.714157,79.628311 
	C150.555237,79.628311 155.396301,79.628311 160.237381,79.628311 
	C160.230682,79.418655 160.223984,79.209007 160.217285,78.999352 
	C159.407471,78.999352 158.597656,78.999352 156.972839,78.998863 
M138.697037,84.995430 
	C137.299255,85.066895 135.901474,85.138351 134.503708,85.209816 
	C134.509247,85.378265 134.514801,85.546722 134.520340,85.715172 
	C138.848557,86.160141 143.176788,86.605118 147.505005,87.050087 
	C147.543060,86.752342 147.581131,86.454605 147.619186,86.156860 
	C144.924194,85.770317 142.229187,85.383774 138.697037,84.995430 
M234.886276,66.065308 
	C231.762466,66.777710 228.638641,67.490105 225.514832,68.202507 
	C225.619965,68.619362 225.725098,69.036224 225.830231,69.453079 
	C229.392929,68.520210 232.955627,67.587341 236.518326,66.654465 
	C236.355499,66.463799 236.216675,66.240837 236.020538,66.094917 
	C235.907990,66.011185 235.702469,66.052422 234.886276,66.065308 
M232.970963,123.523041 
	C233.510757,122.670563 234.050568,121.818092 234.590363,120.965614 
	C234.231705,120.656418 233.873032,120.347221 233.514374,120.038033 
	C232.017456,121.528885 230.520554,123.019745 229.023636,124.510597 
	C229.338165,124.873413 229.652695,125.236229 229.967224,125.599045 
	C230.818741,125.056862 231.670242,124.514679 232.970963,123.523041 
M118.972466,31.085913 
	C118.837082,31.175718 118.673119,31.243797 118.580269,31.365934 
	C118.542709,31.415344 118.648186,31.675167 118.709221,31.683250 
	C121.680122,32.076542 124.653290,32.452778 127.626198,32.830917 
	C127.672272,32.416813 127.718338,32.002708 127.764404,31.588608 
	C125.051437,31.397198 122.338463,31.205790 118.972466,31.085913 
M123.464027,42.978630 
	C123.759956,42.760262 124.055885,42.541893 124.351807,42.323521 
	C124.211609,42.243793 124.067307,42.088192 123.931808,42.095509 
	C121.058929,42.250698 118.187035,42.424217 115.314941,42.594154 
	C115.369232,42.985706 115.423523,43.377254 115.477806,43.768806 
	C117.909981,43.511986 120.342155,43.255165 123.464027,42.978630 
M214.099335,70.763405 
	C215.598297,70.377846 217.097244,69.992287 218.596207,69.606728 
	C218.548050,69.343826 218.499893,69.080925 218.451736,68.818016 
	C215.458908,69.266205 212.466080,69.714394 209.473251,70.162575 
	C209.496841,70.408173 209.520432,70.653770 209.544006,70.899368 
	C210.814880,70.899368 212.085739,70.899368 214.099335,70.763405 
M236.882812,117.951836 
	C237.488297,116.624756 238.093796,115.297676 238.699280,113.970596 
	C238.109573,113.847290 237.519867,113.723984 236.930161,113.600677 
	C236.767914,115.174583 236.605652,116.748482 236.882812,117.951836 
M169.453415,88.981438 
	C170.811432,88.914429 172.169449,88.847412 173.527451,88.780403 
	C173.481323,88.448288 173.435196,88.116173 173.389069,87.784050 
	C171.884125,88.157394 170.379181,88.530739 169.453415,88.981438 
M239.508087,110.544815 
	C240.042709,110.710739 240.577347,110.876671 241.111954,111.042595 
	C241.180908,110.621315 241.249863,110.200043 241.318832,109.778763 
	C240.786835,109.878662 240.254822,109.978561 239.508087,110.544815 
M194.663818,34.231026 
	C195.211868,34.241489 195.759979,34.253876 196.307526,34.241825 
	C196.314819,34.241665 196.315323,33.931969 196.319000,33.766747 
	C195.771133,33.757599 195.223251,33.748455 194.663818,34.231026 
M201.340668,44.451035 
	C202.394043,44.616390 203.447403,44.781750 204.500778,44.947105 
	C204.520218,44.672592 204.539673,44.398075 204.559128,44.123562 
	C203.614258,44.123562 202.669403,44.123562 201.340668,44.451035 
M201.990295,71.949982 
	C202.143906,71.913986 202.316772,71.910080 202.445648,71.832817 
	C202.570633,71.757889 202.650452,71.607620 202.750122,71.490440 
	C201.932312,71.365356 201.114517,71.240265 200.296707,71.115181 
	C200.268524,71.286247 200.240341,71.457321 200.212143,71.628387 
	C200.641571,71.743477 201.070999,71.858566 201.990295,71.949982 
M247.771652,101.420746 
	C247.945786,101.173157 248.119934,100.925568 248.294083,100.677994 
	C248.036530,100.836411 247.778976,100.994820 247.771652,101.420746 
M212.845856,43.538399 
	C212.320053,43.463940 211.794250,43.389481 211.268448,43.315018 
	C211.269867,43.436394 211.254196,43.660496 211.275208,43.663982 
	C211.703201,43.735096 212.135391,43.780975 212.845856,43.538399 
M159.178970,88.072670 
	C158.890930,88.137123 158.602875,88.201569 158.314819,88.266029 
	C158.408051,88.467216 158.501282,88.668404 158.594513,88.869576 
	C158.922195,88.635529 159.249893,88.401474 159.178970,88.072670 
M227.578125,86.771042 
	C227.826523,86.945389 228.074905,87.119736 228.323288,87.294098 
	C228.164536,87.035858 228.005768,86.777626 227.578125,86.771042 
M226.771698,127.422966 
	C226.946564,127.174828 227.121429,126.926689 227.296295,126.678558 
	C227.037582,126.837440 226.778854,126.996323 226.771698,127.422966 
M243.770660,106.423126 
	C243.944443,106.176529 244.118225,105.929924 244.291992,105.683327 
	C244.034790,105.841171 243.777588,105.999023 243.770660,106.423126 
M195.541855,127.144424 
	C195.838684,127.088669 196.135529,127.032906 196.432358,126.977135 
	C196.137772,126.908989 195.843185,126.840836 195.541855,127.144424 
M194.457825,123.856201 
	C194.161041,123.912018 193.864243,123.967834 193.567459,124.023659 
	C193.861908,124.091713 194.156372,124.159767 194.457825,123.856201 
M191.855728,120.540718 
	C191.912018,120.837997 191.968307,121.135284 192.024597,121.432564 
	C192.092178,121.138084 192.159744,120.843605 191.855728,120.540718 
M192.401627,54.179840 
	C192.326477,54.298244 192.175308,54.432430 192.195770,54.530994 
	C192.220413,54.649715 192.398087,54.831291 192.496918,54.823597 
	C192.924240,54.790325 193.346970,54.697861 193.771362,54.626926 
	C193.449249,54.444275 193.127136,54.261620 192.401627,54.179840 
M190.166672,85.739960 
	C190.434509,85.687874 190.702332,85.635780 190.970169,85.583694 
	C190.911255,85.467201 190.835815,85.245064 190.796097,85.251274 
	C190.528961,85.293060 190.269424,85.383316 190.166672,85.739960 
M182.534210,92.003479 
	C182.708832,92.137581 182.883453,92.271690 183.058075,92.405792 
	C182.945541,92.217659 182.833008,92.029526 182.534210,92.003479 
M228.833618,51.260204 
	C228.565689,51.312260 228.297745,51.364315 228.029800,51.416378 
	C228.088776,51.532818 228.164230,51.754848 228.204071,51.748631 
	C228.471298,51.706936 228.730972,51.616692 228.833618,51.260204 
M156.166641,109.739784 
	C156.434341,109.687744 156.702026,109.635712 156.969711,109.583679 
	C156.910843,109.467239 156.835464,109.245216 156.795792,109.251427 
	C156.528793,109.293167 156.269363,109.383347 156.166641,109.739784 
M150.833878,108.259666 
	C150.565628,108.311852 150.297363,108.364029 150.029114,108.416214 
	C150.088150,108.532883 150.163742,108.755348 150.203552,108.749123 
	C150.471100,108.707275 150.731049,108.616844 150.833878,108.259666 
M216.165405,80.740929 
	C216.434250,80.688576 216.703110,80.636223 216.971954,80.583862 
	C216.912766,80.466942 216.836975,80.243973 216.797073,80.250229 
	C216.528931,80.292213 216.268417,80.382904 216.165405,80.740929 
M179.521774,87.840828 
	C179.634064,87.655556 179.746338,87.470284 179.858612,87.285004 
	C179.719177,87.250366 179.486557,87.150192 179.456711,87.192627 
	C179.337646,87.361938 179.281708,87.575630 179.521774,87.840828 
M153.477814,87.159286 
	C153.365463,87.344513 153.253113,87.529739 153.140762,87.714966 
	C153.280289,87.749603 153.512939,87.849861 153.542923,87.807312 
	C153.662109,87.638145 153.718033,87.424408 153.477814,87.159286 
M210.002792,81.471741 
	C210.249268,81.577759 210.490540,81.702919 210.746857,81.772858 
	C210.795303,81.786079 210.903625,81.579811 210.984329,81.474815 
	C210.727600,81.391594 210.470886,81.308372 210.002792,81.471741 
M199.996826,83.528290 
	C199.750610,83.422363 199.509613,83.297310 199.253555,83.227417 
	C199.205170,83.214211 199.096909,83.420242 199.016281,83.525108 
	C199.272736,83.608253 199.529190,83.691399 199.996826,83.528290 
M145.107605,107.661385 
	C145.107605,107.661385 145.013596,107.348335 145.013596,107.348335 
	C145.013596,107.348335 144.912567,107.660179 145.107605,107.661385 
M108.891975,33.338150 
	C108.891975,33.338150 108.986435,33.652252 108.986435,33.652252 
	C108.986435,33.652252 109.087830,33.339321 108.891975,33.338150 
M183.109802,34.357929 
	C183.109802,34.357929 182.822418,34.560856 182.822418,34.560856 
	C182.822418,34.560856 183.202209,34.531628 183.109802,34.357929 
M235.891724,75.337631 
	C235.891724,75.337631 235.986191,75.652130 235.986191,75.652130 
	C235.986191,75.652130 236.087646,75.338760 235.891724,75.337631 
M139.788681,78.481209 
	C139.788681,78.481209 140.155884,78.592339 140.155884,78.592339 
	C140.155884,78.592339 139.921661,78.334137 139.788681,78.481209 
M241.790451,65.481194 
	C241.790451,65.481194 242.154633,65.591690 242.154633,65.591690 
	C242.154633,65.591690 241.922348,65.335068 241.790451,65.481194 
M222.208038,79.518684 
	C222.208038,79.518684 221.846222,79.408684 221.846222,79.408684 
	C221.846222,79.408684 222.076981,79.664017 222.208038,79.518684 
M217.890152,33.642162 
	C217.890152,33.642162 218.177078,33.439022 218.177078,33.439022 
	C218.177078,33.439022 217.798126,33.468449 217.890152,33.642162 
M204.791748,82.481308 
	C204.791748,82.481308 205.154007,82.591393 205.154007,82.591393 
	C205.154007,82.591393 204.922958,82.335815 204.791748,82.481308 
M195.208054,84.518684 
	C195.208054,84.518684 194.846085,84.408638 194.846085,84.408638 
	C194.846085,84.408638 195.076950,84.664085 195.208054,84.518684 
M112.889153,32.643055 
	C112.889153,32.643055 113.178284,32.438560 113.178284,32.438560 
	C113.178284,32.438560 112.796104,32.468227 112.889153,32.643055 
M221.790863,32.481342 
	C221.790863,32.481342 222.154785,32.591923 222.154785,32.591923 
	C222.154785,32.591923 221.922562,32.334984 221.790863,32.481342 
M185.208191,86.518715 
	C185.208191,86.518715 184.846130,86.408684 184.846130,86.408684 
	C184.846130,86.408684 185.077072,86.664154 185.208191,86.518715 
M145.790436,38.481285 
	C145.790436,38.481285 146.154739,38.591774 146.154739,38.591774 
	C146.154739,38.591774 145.922409,38.335266 145.790436,38.481285 
M225.505142,31.466309 
	C225.505142,31.466309 225.526047,31.515186 225.505142,31.466309 
M132.493668,33.534096 
	C132.493668,33.534096 132.472839,33.485245 132.493668,33.534096 
M100.466316,36.495190 
	C100.466316,36.495190 100.515968,36.474636 100.466316,36.495190 
M169.464722,113.494926 
	C169.464722,113.494926 169.513702,113.474640 169.464722,113.494926 
M225.495377,78.533440 
	C225.495377,78.533440 225.474823,78.485023 225.495377,78.533440 
M140.465363,106.494713 
	C140.465363,106.494713 140.514572,106.474602 140.465363,106.494713 
M129.505997,86.466721 
	C129.505997,86.466721 129.526489,86.515030 129.505997,86.466721 
M110.466270,44.495152 
	C110.466270,44.495152 110.515953,44.474594 110.466270,44.495152 
z"/>
<path fill="#BACCD6" opacity="1.000000" stroke="none" 
	d="
M75.962013,37.005112 
	C75.134949,37.180622 74.307877,37.356140 72.907303,37.809052 
	C70.888062,39.058994 69.442345,40.031540 67.996628,41.004089 
	C67.996628,41.004089 67.999962,40.999847 67.677811,41.220276 
	C66.903908,45.963112 66.165329,50.478924 66.061165,55.009323 
	C65.855598,63.950184 65.916725,63.761036 57.713112,67.350090 
	C53.616020,69.142555 49.891739,71.787148 45.998833,74.046310 
	C44.861179,75.258316 43.723526,76.470322 41.970680,77.923828 
	C40.246487,79.914680 38.543823,81.535965 38.133877,83.436134 
	C36.571316,90.678917 33.628685,97.041969 27.996572,102.004173 
	C27.996572,102.004173 27.999884,102.000000 27.687828,102.045761 
	C26.583529,102.728638 25.791286,103.365761 24.999043,104.002876 
	C24.999043,104.002876 24.999924,104.000000 24.685549,104.045692 
	C23.565723,104.728836 22.760273,105.366287 21.954821,106.003738 
	C21.164154,107.221603 20.373487,108.439468 18.971214,109.880524 
	C17.239271,111.403847 16.118935,112.703987 14.998602,114.004128 
	C14.998604,114.004128 14.999924,114.000000 14.716040,114.171051 
	C13.620786,115.896271 12.809417,117.450439 11.998047,119.004616 
	C11.998046,119.004616 11.999924,118.999977 11.706597,119.181030 
	C10.552400,120.920006 9.664906,122.463905 8.835580,124.038437 
	C6.212020,129.019470 3.610217,134.011948 1.000000,139.000000 
	C1.000000,112.312439 1.000000,85.624878 1.339183,58.370567 
	C2.043340,57.483166 2.586584,57.233810 2.747479,56.831535 
	C8.187855,43.229134 13.591877,29.612192 19.000586,15.998693 
	C19.000000,16.000027 18.997631,16.001942 19.294611,15.830632 
	C20.394730,14.094446 21.197870,12.529570 22.151649,10.700821 
	C23.189672,9.624949 24.077059,8.812949 25.318069,7.992496 
	C27.114389,6.988962 28.557085,5.993881 29.999889,4.999410 
	C30.000000,5.000019 29.998762,4.999408 30.334801,4.942824 
	C31.780561,3.590827 32.890282,2.295414 34.000000,1.000000 
	C99.020897,1.000000 164.041794,1.000000 229.515259,1.382295 
	C229.644516,3.511394 229.321198,5.258199 228.997894,7.005004 
	C228.997894,7.005005 229.000000,6.999848 228.713409,7.161763 
	C225.950241,9.883752 223.473663,12.443825 220.997101,15.003901 
	C220.997101,15.003905 221.000000,14.999924 220.640411,15.057957 
	C210.458710,20.534523 200.102142,19.947489 189.777283,17.351292 
	C182.081085,15.416077 175.420959,16.342760 168.365707,20.369280 
	C164.455963,22.600620 158.819153,22.675779 154.046982,22.371490 
	C135.884430,21.213385 117.763611,19.408768 99.605949,18.152979 
	C97.810822,18.028828 95.870506,20.003929 93.997581,21.004684 
	C93.997581,21.004684 94.000000,20.999853 93.639687,21.010231 
	C88.518890,25.681938 83.758415,30.343269 78.997932,35.004601 
	C78.997932,35.004601 79.000000,34.999847 78.659424,35.012772 
	C77.533241,35.685497 76.747627,36.345303 75.962013,37.005112 
M184.797104,6.007814 
	C193.619537,6.658026 202.441956,7.308237 211.264389,7.958448 
	C200.082672,5.782352 188.880386,3.544657 177.633408,7.017230 
	C179.725388,6.685377 181.817383,6.353523 184.797104,6.007814 
M170.109039,8.359249 
	C170.109039,8.359249 169.824097,8.560315 169.824097,8.560315 
	C169.824097,8.560315 170.200378,8.531549 170.109039,8.359249 
M172.466949,7.494992 
	C172.466949,7.494992 172.515076,7.475338 172.466949,7.494992 
z"/>
<path fill="#B9CBD5" opacity="1.000000" stroke="none" 
	d="
M24.964443,8.000950 
	C24.077059,8.812949 23.189672,9.624949 21.858059,10.880530 
	C20.608429,12.883389 19.803030,14.442665 18.997631,16.001942 
	C18.997631,16.001942 19.000000,16.000027 18.656212,16.060944 
	C17.184160,17.463762 15.641675,18.632383 14.995883,20.176119 
	C11.233715,29.169401 7.733483,38.271973 4.013511,47.283447 
	C3.312748,48.981014 2.019727,50.434101 1.000000,52.000000 
	C1.000000,35.092354 1.000000,18.184704 1.000000,1.000000 
	C10.685804,1.000000 20.374245,1.000000 30.480854,1.341093 
	C30.598938,2.787927 30.298849,3.893667 29.998762,4.999408 
	C29.998762,4.999408 30.000000,5.000019 29.649597,5.008077 
	C27.854279,6.011073 26.409361,7.006011 24.964443,8.000950 
z"/>
<path fill="#C5D4DC" opacity="1.000000" stroke="none" 
	d="
M1.000000,52.428463 
	C2.019727,50.434101 3.312748,48.981014 4.013511,47.283447 
	C7.733483,38.271973 11.233715,29.169401 14.995883,20.176119 
	C15.641675,18.632383 17.184160,17.463762 18.656797,16.059608 
	C13.591877,29.612192 8.187855,43.229134 2.747479,56.831535 
	C2.586584,57.233810 2.043340,57.483166 1.339183,57.901909 
	C1.000000,56.285641 1.000000,54.571285 1.000000,52.428463 
z"/>
<path fill="#C6D5DD" opacity="1.000000" stroke="none" 
	d="
M1.000000,139.416656 
	C3.610217,134.011948 6.212020,129.019470 8.835580,124.038437 
	C9.664906,122.463905 10.552400,120.920006 11.708667,119.179321 
	C8.559469,127.268570 5.114877,135.540573 1.335142,143.906296 
	C1.000000,142.611115 1.000000,141.222214 1.000000,139.416656 
z"/>
<path fill="#C6D5DD" opacity="1.000000" stroke="none" 
	d="
M229.334137,6.908913 
	C229.321198,5.258199 229.644516,3.511394 229.983917,1.382295 
	C230.444443,1.000000 230.888901,1.000000 231.666672,1.000000 
	C231.223465,2.937608 230.446945,4.875215 229.334137,6.908913 
z"/>
<path fill="#C5D4DC" opacity="1.000000" stroke="none" 
	d="
M30.334801,4.942824 
	C30.298849,3.893667 30.598938,2.787927 30.949512,1.341093 
	C31.750000,1.000000 32.500000,1.000000 33.625000,1.000000 
	C32.890282,2.295414 31.780561,3.590827 30.334801,4.942824 
z"/>
<path fill="#C6D5DD" opacity="1.000000" stroke="none" 
	d="
M94.367477,20.942005 
	C95.870506,20.003929 97.810822,18.028828 99.605949,18.152979 
	C117.763611,19.408768 135.884430,21.213385 154.046982,22.371490 
	C158.819153,22.675779 164.455963,22.600620 168.365707,20.369280 
	C175.420959,16.342760 182.081085,15.416077 189.777283,17.351292 
	C200.102142,19.947489 210.458710,20.534523 220.642563,15.057167 
	C217.296066,20.292437 211.346863,20.798367 205.943329,20.790186 
	C198.876373,20.779491 191.830032,18.959755 184.738617,18.558990 
	C180.908737,18.342548 176.383347,18.387665 173.258026,20.194130 
	C166.212753,24.266361 159.201324,25.022173 151.301239,24.095535 
	C140.782761,22.861778 130.137177,22.746124 119.560417,21.959106 
	C114.614029,21.591045 109.715034,20.538097 104.767929,20.244829 
	C101.448608,20.048058 98.082527,20.640179 94.367477,20.942005 
z"/>
<path fill="#32ADC5" opacity="1.000000" stroke="none" 
	d="
M123.847092,74.485092 
	C122.897041,75.577278 121.974579,76.227783 121.052124,76.878296 
	C120.530182,75.976570 119.579285,75.085693 119.556145,74.171341 
	C119.409355,68.369843 119.284782,62.555576 119.525017,56.760948 
	C119.675400,53.133713 118.567917,51.600475 114.771576,51.759312 
	C113.389694,51.817131 111.950745,50.510815 110.537827,49.826874 
	C112.004776,49.208260 113.450684,48.123642 114.942535,48.056248 
	C119.908279,47.831921 124.894615,47.864914 129.863403,48.053558 
	C131.029495,48.097828 132.157654,49.141544 133.303253,49.725456 
	C132.235489,50.439880 131.062164,51.885345 130.117264,51.748909 
	C124.408432,50.924622 123.498230,53.820961 123.816460,58.623444 
	C124.155663,63.742245 123.881218,68.901711 123.847092,74.485092 
z"/>
<path fill="#32ADC5" opacity="1.000000" stroke="none" 
	d="
M173.956451,68.737732 
	C174.369705,71.558212 174.783844,73.937202 175.177887,76.200836 
	C171.295685,76.466599 167.286530,77.288811 163.451035,76.786026 
	C161.349075,76.510498 158.557877,74.332108 157.898987,72.392853 
	C157.335480,70.734306 158.782684,67.319656 160.387878,66.242462 
	C162.953079,64.521027 166.386108,64.092796 169.665405,63.050049 
	C168.494019,56.252117 162.506256,60.838055 158.691849,59.170177 
	C161.630341,55.028717 165.536346,55.323547 168.651627,56.502510 
	C170.812531,57.320293 172.580414,60.101143 173.710007,62.404118 
	C174.502533,64.019867 173.923737,66.308250 173.956451,68.737732 
M166.999100,73.579826 
	C167.913132,71.758095 168.827164,69.936371 169.741196,68.114639 
	C168.395203,67.823868 166.701141,66.886765 165.779160,67.383308 
	C164.106323,68.284233 162.893112,70.038582 161.488068,71.436714 
	C163.078186,72.229965 164.668289,73.023216 166.999100,73.579826 
z"/>
<path fill="#31ACC5" opacity="1.000000" stroke="none" 
	d="
M69.394798,60.193817 
	C73.983292,55.839890 78.104797,54.769432 82.365135,56.922947 
	C87.004646,59.268127 87.575775,63.613503 87.313675,68.043373 
	C86.996681,73.400993 83.383179,76.802002 78.378387,77.018166 
	C72.945824,77.252815 69.198135,74.235252 68.233200,68.787071 
	C68.060112,67.809822 68.097191,66.795341 68.056824,65.042511 
	C68.515869,62.922585 68.955330,61.558201 69.394798,60.193817 
M82.943069,68.970619 
	C82.887314,67.001579 83.553940,64.510033 82.599747,63.190834 
	C81.297882,61.390934 77.666420,58.968967 76.959518,59.479618 
	C74.862831,60.994228 72.527565,63.804653 72.506126,66.128922 
	C72.482620,68.679153 74.318695,72.270973 76.458336,73.559982 
	C79.194908,75.208611 81.594971,72.690063 82.943069,68.970619 
z"/>
<path fill="#33ADC5" opacity="1.000000" stroke="none" 
	d="
M103.935455,70.937431 
	C103.853966,67.995392 104.286140,65.336205 103.517639,63.087322 
	C102.970078,61.484974 100.486710,59.161594 99.438080,59.425785 
	C97.715576,59.859756 95.522110,61.953930 95.196503,63.665615 
	C94.525620,67.192368 95.069817,70.935692 94.845779,74.573387 
	C94.796341,75.376122 93.631233,76.110138 92.979858,76.875801 
	C92.352554,76.263428 91.193855,75.662659 91.180199,75.036896 
	C91.044479,68.818314 91.097954,62.595608 91.097954,56.891430 
	C94.241043,56.569611 96.574921,56.453415 98.864388,56.071205 
	C103.965782,55.219570 107.439484,57.647099 107.811874,62.789391 
	C108.062897,66.255745 108.055069,69.769760 107.772720,73.230614 
	C107.669693,74.493446 106.438736,75.664261 105.722359,76.877052 
	C105.128738,75.713676 104.447655,74.584084 103.979561,73.372215 
	C103.756226,72.794006 103.937538,72.059494 103.935455,70.937431 
z"/>
<path fill="#33ADC5" opacity="1.000000" stroke="none" 
	d="
M183.914597,47.152584 
	C183.928223,49.481152 183.941833,51.809723 183.973938,54.819160 
	C183.992416,55.500031 184.067734,55.992859 184.067719,55.992859 
	C184.010513,60.126415 183.574478,64.302429 184.031281,68.378380 
	C184.328445,71.029968 185.925476,73.535873 186.935684,76.095665 
	C182.749649,77.381798 180.086212,75.585770 179.992752,70.775116 
	C179.844971,63.167686 179.960999,55.555130 180.387878,47.455673 
	C181.845093,47.028599 182.879837,47.090591 183.914597,47.152584 
z"/>
<path fill="#B5C4CC" opacity="1.000000" stroke="none" 
	d="
M163.945541,104.979813 
	C162.169586,104.654091 160.144440,104.749313 158.686539,103.886299 
	C157.176895,102.992668 155.218292,101.108864 155.299713,99.770309 
	C155.380325,98.445122 157.665237,96.351868 159.153137,96.193748 
	C162.751724,95.811310 166.449295,96.360229 170.613647,96.557747 
	C170.216843,99.212105 169.766022,102.227859 168.856659,105.463585 
	C166.913940,105.448967 165.429733,105.214394 163.945541,104.979813 
z"/>
<path fill="#C5D3DB" opacity="1.000000" stroke="none" 
	d="
M201.482025,96.795914 
	C195.022949,95.151985 196.226517,100.206520 195.199677,104.108948 
	C194.818588,97.736916 192.749039,93.142906 185.769791,93.363609 
	C197.222595,92.589264 208.675400,91.814919 220.576721,91.269958 
	C220.984863,91.663765 220.944489,91.828194 220.904114,91.992615 
	C216.817627,94.847420 212.839935,98.169479 206.606628,95.138870 
	C204.380478,95.690109 202.931259,96.243011 201.482025,96.795914 
z"/>
<path fill="#33ADC5" opacity="1.000000" stroke="none" 
	d="
M135.058029,77.168709 
	C134.074753,75.992195 132.329330,74.868683 132.243164,73.629784 
	C131.910889,68.851891 132.108887,64.037132 132.109161,59.236111 
	C132.109329,56.380604 132.867889,55.681931 136.015671,56.637405 
	C138.443832,57.374443 141.430756,56.270573 144.771469,57.106472 
	C143.864441,57.829853 142.940765,59.192429 142.053162,59.169323 
	C137.472748,59.050056 136.425339,62.067673 136.156754,65.575684 
	C135.892029,69.033287 136.061600,72.524147 135.778305,76.510483 
	C135.515976,77.020554 135.058029,77.168709 135.058029,77.168709 
z"/>
<path fill="#33ADC5" opacity="1.000000" stroke="none" 
	d="
M153.058685,71.783157 
	C153.044815,73.080902 153.284775,74.036690 152.949127,74.702179 
	C152.521622,75.549828 151.628433,76.162598 150.935989,76.876625 
	C150.335007,76.058655 149.275192,75.272827 149.215225,74.416939 
	C148.996033,71.288483 149.324203,68.116631 149.032547,64.999840 
	C148.787827,62.384777 147.966599,59.823666 147.230942,56.463795 
	C148.279495,56.361027 150.310455,56.161972 153.056793,55.892807 
	C153.056793,61.481659 153.056793,66.396950 153.058685,71.783157 
z"/>
<path fill="#C6D5DD" opacity="1.000000" stroke="none" 
	d="
M69.075974,59.883987 
	C68.955330,61.558201 68.515869,62.922585 67.984093,64.634811 
	C60.833271,67.955917 53.774765,70.929176 46.357544,73.974373 
	C49.891739,71.787148 53.616020,69.142555 57.713112,67.350090 
	C65.916725,63.761036 65.855598,63.950184 66.061165,55.009323 
	C66.165329,50.478924 66.903908,45.963112 67.679825,41.218597 
	C68.255043,47.189045 68.506104,53.381603 69.075974,59.883987 
z"/>
<path fill="#2D3031" opacity="1.000000" stroke="none" 
	d="
M201.855713,96.868011 
	C202.931259,96.243011 204.380478,95.690109 206.201447,95.189713 
	C207.398285,98.170212 208.223404,101.098213 209.478516,105.552055 
	C205.780487,104.421432 203.179550,103.626228 200.578613,102.831032 
	C202.160385,101.151291 203.742142,99.471550 205.566849,97.533829 
	C204.818130,97.400635 203.523773,97.170364 201.855713,96.868011 
z"/>
<path fill="#404547" opacity="1.000000" stroke="none" 
	d="
M123.417816,97.008095 
	C121.667168,99.612045 120.377762,102.113556 118.622757,105.518364 
	C118.448349,101.830299 118.303864,98.774864 118.120407,94.895210 
	C121.961143,95.561012 125.189034,96.120583 128.254883,96.652061 
	C128.254883,99.257545 128.254883,101.501289 128.254883,103.745041 
	C127.898415,103.778145 127.541946,103.811249 127.185478,103.844353 
	C127.086487,102.364540 127.341652,100.728561 126.779228,99.453087 
	C126.308380,98.385292 124.882210,97.738739 123.417816,97.008095 
z"/>
<path fill="#343839" opacity="1.000000" stroke="none" 
	d="
M139.124954,103.124260 
	C138.574554,103.692802 138.102051,104.378326 137.458450,104.806915 
	C135.838425,105.885735 134.141190,106.848618 132.258209,107.989250 
	C132.258209,104.427788 132.258209,100.011742 132.258209,94.841164 
	C134.346405,95.252632 136.598297,95.696342 138.777985,96.716721 
	C138.563873,97.435806 138.421936,97.578247 137.929199,97.532608 
	C132.024124,96.108109 134.008026,99.889412 133.787598,103.096313 
	C135.588760,102.756332 136.908798,102.507172 138.452881,102.474533 
	C138.826294,102.835464 138.975616,102.979858 139.124954,103.124260 
z"/>
<path fill="#AEBEC7" opacity="1.000000" stroke="none" 
	d="
M86.421211,100.980476 
	C86.940239,99.362785 87.631523,97.776375 87.932365,96.119080 
	C88.268280,94.268578 88.249718,92.353737 88.419205,89.997429 
	C92.906891,91.126488 91.910126,94.211143 91.949989,96.546410 
	C91.993095,99.071648 91.561371,101.604980 91.216438,105.489876 
	C89.534096,104.212425 88.271210,103.253479 86.652740,101.897507 
	C86.338509,101.327156 86.379860,101.153816 86.421211,100.980476 
z"/>
<path fill="#404547" opacity="1.000000" stroke="none" 
	d="
M86.374054,100.554489 
	C86.379860,101.153816 86.338509,101.327156 86.359169,101.760498 
	C86.999847,105.693817 84.032265,104.951546 82.352219,104.818092 
	C80.832542,104.697372 78.553345,103.728500 78.128922,102.574600 
	C77.424103,100.658371 77.937012,98.294228 77.937012,96.118752 
	C78.469131,96.129318 79.001251,96.139877 79.533363,96.150444 
	C79.619270,97.460625 79.465988,98.849648 79.863922,100.056984 
	C80.205322,101.092827 81.177132,101.920883 81.870163,102.840820 
	C82.650574,101.968689 83.825691,101.211395 84.120567,100.197983 
	C84.583801,98.605934 84.453712,96.841248 84.574860,95.149658 
	C85.054695,95.150299 85.534531,95.150932 86.014366,95.151573 
	C86.118546,96.810547 86.222725,98.469528 86.374054,100.554489 
z"/>
<path fill="#C6D5DD" opacity="1.000000" stroke="none" 
	d="
M28.360882,101.993240 
	C33.628685,97.041969 36.571316,90.678917 38.133877,83.436134 
	C38.543823,81.535965 40.246487,79.914680 41.699608,78.081749 
	C40.360481,83.172523 39.258915,88.647133 36.795689,93.418846 
	C35.066166,96.769234 31.481453,99.161942 28.360882,101.993240 
z"/>
<path fill="#3A3F41" opacity="1.000000" stroke="none" 
	d="
M146.206329,97.251038 
	C146.242294,99.576523 146.646774,101.774544 147.169067,104.612671 
	C146.957108,104.562675 144.452881,104.478394 144.310593,103.855019 
	C143.479980,100.215706 143.202866,96.450058 143.618149,92.543556 
	C143.341553,94.958824 149.543076,93.668129 146.206329,97.251038 
z"/>
<path fill="#C6D5DD" opacity="1.000000" stroke="none" 
	d="
M164.191620,105.235748 
	C165.429733,105.214394 166.913940,105.448967 168.686340,105.813705 
	C181.862701,110.337753 183.609329,111.260216 186.664780,115.578873 
	C178.962067,112.083199 171.699875,108.787445 164.191620,105.235748 
z"/>
<path fill="#C6D5DD" opacity="1.000000" stroke="none" 
	d="
M209.626312,133.845016 
	C214.719650,132.016907 219.411697,130.257568 224.735626,128.261276 
	C218.943726,134.336807 207.490616,137.228973 202.350754,133.913773 
	C204.938934,133.913773 207.081970,133.913773 209.626312,133.845016 
z"/>
<path fill="#404547" opacity="1.000000" stroke="none" 
	d="
M220.981140,92.450478 
	C220.944489,91.828194 220.984863,91.663765 220.967270,91.252075 
	C221.625519,91.025513 222.910995,90.880653 222.972397,91.091789 
	C223.872238,94.185883 224.608887,97.327431 225.462387,100.772667 
	C224.787964,101.519157 223.362167,103.097313 221.058151,105.647530 
	C221.058151,100.855087 221.058151,96.881714 220.981140,92.450478 
z"/>
<path fill="#C3D3DB" opacity="1.000000" stroke="none" 
	d="
M184.236694,46.878471 
	C182.879837,47.090591 181.845093,47.028599 180.421173,46.988670 
	C177.129410,47.237175 174.226807,47.463619 171.324203,47.690067 
	C171.284225,47.195602 171.244247,46.701141 171.204269,46.206676 
	C179.787598,45.541702 188.370926,44.876732 196.954269,44.211758 
	C197.007065,44.642185 197.059860,45.072609 197.112656,45.503036 
	C192.928040,45.870140 188.743423,46.237247 184.236694,46.878471 
z"/>
<path fill="#C6D5DD" opacity="1.000000" stroke="none" 
	d="
M79.337143,34.946114 
	C83.758415,30.343269 88.518890,25.681938 93.642334,21.009428 
	C89.228981,25.628042 84.452667,30.257835 79.337143,34.946114 
z"/>
<path fill="#C6D5DD" opacity="1.000000" stroke="none" 
	d="
M233.236649,84.879364 
	C232.220169,85.176613 231.505936,85.330963 230.101089,85.634552 
	C236.932892,79.388367 244.284943,77.672928 248.147141,80.120590 
	C243.740707,81.512924 238.639801,83.124687 233.236649,84.879364 
z"/>
<path fill="#AEBEC7" opacity="1.000000" stroke="none" 
	d="
M96.994858,96.807007 
	C98.368675,96.638962 99.494148,96.330566 100.619621,96.022171 
	C100.990501,96.300041 101.361374,96.577911 101.732254,96.855782 
	C99.724579,99.445129 97.716904,102.034470 94.891800,105.678070 
	C94.625641,101.692802 94.437653,99.346603 94.416222,96.998901 
	C94.415268,96.895256 95.935081,96.777725 96.994858,96.807007 
z"/>
<path fill="#C3D3DB" opacity="1.000000" stroke="none" 
	d="
M212.745880,53.995781 
	C208.360001,53.997753 204.438995,53.997753 200.518005,53.997753 
	C200.515518,53.739223 200.513016,53.480694 200.510529,53.222164 
	C207.445084,52.732216 214.379639,52.242268 221.314194,51.752319 
	C221.355316,52.074921 221.396454,52.397522 221.437576,52.720123 
	C218.695312,53.144688 215.953049,53.569248 212.745880,53.995781 
z"/>
<path fill="#C5D3DB" opacity="1.000000" stroke="none" 
	d="
M153.810135,39.000092 
	C160.700989,38.557735 167.196411,38.116867 173.691833,37.675999 
	C173.723297,38.060818 173.754745,38.445637 173.786209,38.830456 
	C166.401062,39.347214 159.015915,39.863976 151.630753,40.380733 
	C151.597214,39.994709 151.563675,39.608681 151.530121,39.222656 
	C152.158325,39.148964 152.786514,39.075272 153.810135,39.000092 
z"/>
<path fill="#C6D5DD" opacity="1.000000" stroke="none" 
	d="
M250.954926,97.436813 
	C250.374359,97.238647 249.451538,96.606758 249.548004,96.252045 
	C250.573059,92.482521 251.760010,88.757019 253.305145,83.701706 
	C254.669861,89.352562 252.594452,93.204010 250.954926,97.436813 
z"/>
<path fill="#C6D5DD" opacity="1.000000" stroke="none" 
	d="
M221.361237,14.992242 
	C223.473663,12.443825 225.950241,9.883752 228.715591,7.159884 
	C228.466049,11.378780 225.675232,13.708003 221.361237,14.992242 
z"/>
<path fill="#C5D4DC" opacity="1.000000" stroke="none" 
	d="
M157.380341,78.999107 
	C158.597656,78.999352 159.407471,78.999352 160.217285,78.999352 
	C160.223984,79.209007 160.230682,79.418655 160.237381,79.628311 
	C155.396301,79.628311 150.555237,79.628311 145.714157,79.628311 
	C145.699020,79.418495 145.683868,79.208679 145.668732,78.998863 
	C149.436768,78.998863 153.204803,78.998863 157.380341,78.999107 
z"/>
<path fill="#C3D3DB" opacity="1.000000" stroke="none" 
	d="
M139.115616,84.996330 
	C142.229187,85.383774 144.924194,85.770317 147.619186,86.156860 
	C147.581131,86.454605 147.543060,86.752342 147.505005,87.050087 
	C143.176788,86.605118 138.848557,86.160141 134.520340,85.715172 
	C134.514801,85.546722 134.509247,85.378265 134.503708,85.209816 
	C135.901474,85.138351 137.299255,85.066895 139.115616,84.996330 
z"/>
<path fill="#C3D3DB" opacity="1.000000" stroke="none" 
	d="
M235.212524,66.051353 
	C235.702469,66.052422 235.907990,66.011185 236.020538,66.094917 
	C236.216675,66.240837 236.355499,66.463799 236.518326,66.654465 
	C232.955627,67.587341 229.392929,68.520210 225.830231,69.453079 
	C225.725098,69.036224 225.619965,68.619362 225.514832,68.202507 
	C228.638641,67.490105 231.762466,66.777710 235.212524,66.051353 
z"/>
<path fill="#C6D5DD" opacity="1.000000" stroke="none" 
	d="
M232.746353,123.747765 
	C231.670242,124.514679 230.818741,125.056862 229.967224,125.599045 
	C229.652695,125.236229 229.338165,124.873413 229.023636,124.510597 
	C230.520554,123.019745 232.017456,121.528885 233.514374,120.038033 
	C233.873032,120.347221 234.231705,120.656418 234.590363,120.965614 
	C234.050568,121.818092 233.510757,122.670563 232.746353,123.747765 
z"/>
<path fill="#C3D3DB" opacity="1.000000" stroke="none" 
	d="
M119.298981,31.050148 
	C122.338463,31.205790 125.051437,31.397198 127.764404,31.588608 
	C127.718338,32.002708 127.672272,32.416813 127.626198,32.830917 
	C124.653290,32.452778 121.680122,32.076542 118.709221,31.683250 
	C118.648186,31.675167 118.542709,31.415344 118.580269,31.365934 
	C118.673119,31.243797 118.837082,31.175718 119.298981,31.050148 
z"/>
<path fill="#C3D3DB" opacity="1.000000" stroke="none" 
	d="
M123.119179,42.988487 
	C120.342155,43.255165 117.909981,43.511986 115.477806,43.768806 
	C115.423523,43.377254 115.369232,42.985706 115.314941,42.594154 
	C118.187035,42.424217 121.058929,42.250698 123.931808,42.095509 
	C124.067307,42.088192 124.211609,42.243793 124.351807,42.323524 
	C124.055885,42.541893 123.759956,42.760262 123.119179,42.988487 
z"/>
<path fill="#C3D3DB" opacity="1.000000" stroke="none" 
	d="
M213.727966,70.831390 
	C212.085739,70.899368 210.814880,70.899368 209.544006,70.899368 
	C209.520432,70.653770 209.496841,70.408173 209.473251,70.162575 
	C212.466080,69.714394 215.458908,69.266205 218.451736,68.818016 
	C218.499893,69.080925 218.548050,69.343826 218.596207,69.606728 
	C217.097244,69.992287 215.598297,70.377846 213.727966,70.831390 
z"/>
<path fill="#C6D5DD" opacity="1.000000" stroke="none" 
	d="
M236.663101,118.137115 
	C236.605652,116.748482 236.767914,115.174583 236.930161,113.600677 
	C237.519867,113.723984 238.109573,113.847290 238.699280,113.970596 
	C238.093796,115.297676 237.488297,116.624756 236.663101,118.137115 
z"/>
<path fill="#C6D5DD" opacity="1.000000" stroke="none" 
	d="
M15.335331,113.948425 
	C16.118935,112.703987 17.239271,111.403847 18.701464,110.050995 
	C17.919567,111.296432 16.795815,112.594574 15.335331,113.948425 
z"/>
<path fill="#343839" opacity="1.000000" stroke="none" 
	d="
M138.918640,97.079666 
	C139.306274,98.885765 139.481064,100.905571 139.390396,103.024811 
	C138.975616,102.979858 138.826294,102.835464 138.621948,102.177521 
	C138.471283,100.349548 138.375641,99.035118 138.279999,97.720680 
	C138.421936,97.578247 138.563873,97.435806 138.918640,97.079666 
z"/>
<path fill="#C6D5DD" opacity="1.000000" stroke="none" 
	d="
M12.334381,118.917542 
	C12.809417,117.450439 13.620786,115.896271 14.717932,114.169724 
	C14.226045,115.608391 13.448380,117.219429 12.334381,118.917542 
z"/>
<path fill="#C6D5DD" opacity="1.000000" stroke="none" 
	d="
M68.360199,40.992767 
	C69.442345,40.031540 70.888062,39.058994 72.669510,38.024429 
	C71.578079,38.968758 70.150925,39.975101 68.360199,40.992767 
z"/>
<path fill="#C2D2DA" opacity="1.000000" stroke="none" 
	d="
M169.163818,88.942764 
	C170.379181,88.530739 171.884125,88.157394 173.389069,87.784050 
	C173.435196,88.116173 173.481323,88.448288 173.527451,88.780403 
	C172.169449,88.847412 170.811432,88.914429 169.163818,88.942764 
z"/>
<path fill="#C6D5DD" opacity="1.000000" stroke="none" 
	d="
M239.615448,110.311646 
	C240.254822,109.978561 240.786835,109.878662 241.318817,109.778763 
	C241.249863,110.200043 241.180908,110.621315 241.111969,111.042603 
	C240.577347,110.876671 240.042709,110.710739 239.615448,110.311646 
z"/>
<path fill="#C1D1DA" opacity="1.000000" stroke="none" 
	d="
M194.669601,33.985168 
	C195.223251,33.748455 195.771133,33.757599 196.319000,33.766747 
	C196.315323,33.931969 196.314819,34.241665 196.307526,34.241825 
	C195.759979,34.253876 195.211868,34.241489 194.669601,33.985168 
z"/>
<path fill="#C3D3DB" opacity="1.000000" stroke="none" 
	d="
M201.532593,44.287300 
	C202.669403,44.123562 203.614258,44.123562 204.559128,44.123562 
	C204.539673,44.398075 204.520218,44.672592 204.500778,44.947105 
	C203.447403,44.781750 202.394043,44.616390 201.532593,44.287300 
z"/>
<path fill="#C2D2DA" opacity="1.000000" stroke="none" 
	d="
M162.002823,110.995224 
	C163.117050,111.175301 164.231293,111.355377 165.345520,111.535454 
	C165.258621,111.864128 165.171722,112.192802 165.084824,112.521477 
	C164.189499,112.168762 163.294189,111.816040 162.199371,111.231720 
	C161.999893,111.000130 162.002823,110.995224 162.002823,110.995224 
z"/>
<path fill="#C3D3DB" opacity="1.000000" stroke="none" 
	d="
M201.745361,71.961823 
	C201.070999,71.858566 200.641571,71.743477 200.212143,71.628387 
	C200.240341,71.457321 200.268524,71.286247 200.296707,71.115181 
	C201.114517,71.240265 201.932312,71.365356 202.750122,71.490433 
	C202.650452,71.607620 202.570633,71.757889 202.445648,71.832817 
	C202.316772,71.910080 202.143906,71.913986 201.745361,71.961823 
z"/>
<path fill="#C6D5DD" opacity="1.000000" stroke="none" 
	d="
M25.341263,103.990105 
	C25.791286,103.365761 26.583529,102.728638 27.690239,102.044693 
	C27.230965,102.657692 26.457222,103.317513 25.341263,103.990105 
z"/>
<path fill="#C6D5DD" opacity="1.000000" stroke="none" 
	d="
M22.301836,105.991852 
	C22.760273,105.366287 23.565723,104.728836 24.687134,104.045685 
	C24.218346,104.659981 23.433598,105.319969 22.301836,105.991852 
z"/>
<path fill="#C6D5DD" opacity="1.000000" stroke="none" 
	d="
M76.280350,36.959118 
	C76.747627,36.345303 77.533241,35.685497 78.661980,35.012039 
	C78.202972,35.636631 77.400833,36.274876 76.280350,36.959118 
z"/>
<path fill="#C6D5DD" opacity="1.000000" stroke="none" 
	d="
M247.646530,101.286987 
	C247.778976,100.994820 248.036530,100.836411 248.294083,100.677994 
	C248.119934,100.925568 247.945786,101.173157 247.646530,101.286987 
z"/>
<path fill="#C3D3DB" opacity="1.000000" stroke="none" 
	d="
M212.706299,43.685146 
	C212.135391,43.780975 211.703201,43.735096 211.275208,43.663982 
	C211.254196,43.660496 211.269867,43.436394 211.268448,43.315018 
	C211.794250,43.389481 212.320053,43.463940 212.706299,43.685146 
z"/>
<path fill="#C2D2DA" opacity="1.000000" stroke="none" 
	d="
M159.378281,88.120049 
	C159.249893,88.401474 158.922195,88.635529 158.594513,88.869583 
	C158.501282,88.668404 158.408051,88.467216 158.314819,88.266022 
	C158.602875,88.201569 158.890930,88.137123 159.378281,88.120049 
z"/>
<path fill="#C6D5DD" opacity="1.000000" stroke="none" 
	d="
M227.712555,86.645218 
	C228.005768,86.777626 228.164536,87.035858 228.323303,87.294098 
	C228.074905,87.119736 227.826523,86.945389 227.712555,86.645218 
z"/>
<path fill="#C6D5DD" opacity="1.000000" stroke="none" 
	d="
M226.645905,127.289085 
	C226.778854,126.996323 227.037582,126.837440 227.296295,126.678558 
	C227.121429,126.926689 226.946564,127.174828 226.645905,127.289085 
z"/>
<path fill="#C6D5DD" opacity="1.000000" stroke="none" 
	d="
M243.645523,106.289993 
	C243.777588,105.999023 244.034790,105.841171 244.291992,105.683327 
	C244.118225,105.929924 243.944443,106.176529 243.645523,106.289993 
z"/>
<path fill="#C6D5DD" opacity="1.000000" stroke="none" 
	d="
M195.545227,126.958557 
	C195.843185,126.840836 196.137772,126.908989 196.432358,126.977142 
	C196.135529,127.032906 195.838684,127.088669 195.545227,126.958557 
z"/>
<path fill="#C6D5DD" opacity="1.000000" stroke="none" 
	d="
M194.454315,124.042007 
	C194.156372,124.159767 193.861908,124.091713 193.567459,124.023651 
	C193.864243,123.967834 194.161041,123.912018 194.454315,124.042007 
z"/>
<path fill="#C6D5DD" opacity="1.000000" stroke="none" 
	d="
M192.041519,120.544922 
	C192.159744,120.843605 192.092178,121.138084 192.024597,121.432564 
	C191.968307,121.135284 191.912018,120.837997 192.041519,120.544922 
z"/>
<path fill="#C3D3DB" opacity="1.000000" stroke="none" 
	d="
M184.371307,55.994202 
	C184.067734,55.992859 183.992416,55.500031 184.030426,55.253654 
	C184.950043,55.048252 185.831665,55.089226 186.713272,55.130196 
	C186.720459,55.335739 186.727631,55.541283 186.734818,55.746830 
	C186.048172,55.829735 185.361526,55.912640 184.371307,55.994202 
z"/>
<path fill="#C3D3DB" opacity="1.000000" stroke="none" 
	d="
M192.603333,54.129402 
	C193.127136,54.261620 193.449249,54.444275 193.771362,54.626926 
	C193.346970,54.697861 192.924240,54.790325 192.496918,54.823597 
	C192.398087,54.831291 192.220413,54.649715 192.195770,54.530994 
	C192.175308,54.432430 192.326477,54.298244 192.603333,54.129402 
z"/>
<path fill="#C2D2DA" opacity="1.000000" stroke="none" 
	d="
M190.087036,85.598915 
	C190.269424,85.383316 190.528961,85.293060 190.796097,85.251274 
	C190.835815,85.245064 190.911255,85.467201 190.970169,85.583694 
	C190.702332,85.635780 190.434509,85.687874 190.087036,85.598915 
z"/>
<path fill="#C2D2DA" opacity="1.000000" stroke="none" 
	d="
M161.997192,111.002876 
	C161.379990,110.945839 160.765457,110.886055 160.150940,110.826271 
	C160.192123,110.626419 160.233322,110.426575 160.274506,110.226730 
	C160.736145,110.358292 161.197784,110.489853 161.831116,110.808319 
	C162.002823,110.995224 161.999893,111.000130 161.997192,111.002876 
z"/>
<path fill="#C5D3DB" opacity="1.000000" stroke="none" 
	d="
M182.627350,91.922440 
	C182.833008,92.029526 182.945541,92.217659 183.058075,92.405792 
	C182.883453,92.271690 182.708832,92.137581 182.627350,91.922440 
z"/>
<path fill="#C3D3DB" opacity="1.000000" stroke="none" 
	d="
M228.913361,51.401199 
	C228.730972,51.616692 228.471298,51.706936 228.204071,51.748631 
	C228.164230,51.754848 228.088776,51.532818 228.029816,51.416374 
	C228.297745,51.364315 228.565689,51.312260 228.913361,51.401199 
z"/>
<path fill="#C2D2DA" opacity="1.000000" stroke="none" 
	d="
M156.087067,109.598816 
	C156.269363,109.383347 156.528793,109.293167 156.795792,109.251427 
	C156.835464,109.245216 156.910843,109.467239 156.969727,109.583679 
	C156.702026,109.635712 156.434341,109.687744 156.087067,109.598816 
z"/>
<path fill="#C2D2DA" opacity="1.000000" stroke="none" 
	d="
M150.913666,108.400917 
	C150.731049,108.616844 150.471100,108.707275 150.203552,108.749123 
	C150.163742,108.755348 150.088150,108.532883 150.029114,108.416214 
	C150.297363,108.364029 150.565628,108.311852 150.913666,108.400917 
z"/>
<path fill="#C2D2DA" opacity="1.000000" stroke="none" 
	d="
M216.085419,80.599365 
	C216.268417,80.382904 216.528931,80.292213 216.797073,80.250229 
	C216.836975,80.243973 216.912766,80.466942 216.971954,80.583862 
	C216.703110,80.636223 216.434250,80.688576 216.085419,80.599365 
z"/>
<path fill="#C2D2DA" opacity="1.000000" stroke="none" 
	d="
M179.362091,87.806862 
	C179.281708,87.575630 179.337646,87.361938 179.456711,87.192627 
	C179.486557,87.150192 179.719177,87.250366 179.858612,87.285004 
	C179.746338,87.470284 179.634064,87.655556 179.362091,87.806862 
z"/>
<path fill="#C3D3DB" opacity="1.000000" stroke="none" 
	d="
M153.637604,87.193230 
	C153.718033,87.424408 153.662109,87.638145 153.542923,87.807312 
	C153.512939,87.849861 153.280289,87.749603 153.140762,87.714966 
	C153.253113,87.529739 153.365463,87.344513 153.637604,87.193230 
z"/>
<path fill="#C2D2DA" opacity="1.000000" stroke="none" 
	d="
M210.108475,81.348450 
	C210.470886,81.308372 210.727600,81.391594 210.984329,81.474815 
	C210.903625,81.579811 210.795303,81.786079 210.746857,81.772858 
	C210.490540,81.702919 210.249268,81.577759 210.108475,81.348450 
z"/>
<path fill="#C2D2DA" opacity="1.000000" stroke="none" 
	d="
M199.891235,83.651413 
	C199.529190,83.691399 199.272736,83.608253 199.016281,83.525108 
	C199.096909,83.420242 199.205170,83.214211 199.253555,83.227417 
	C199.509613,83.297310 199.750610,83.422363 199.891235,83.651413 
z"/>
<path fill="#C2D2DA" opacity="1.000000" stroke="none" 
	d="
M145.010086,107.660782 
	C144.912567,107.660179 145.013596,107.348335 145.013596,107.348335 
	C145.013596,107.348335 145.107605,107.661385 145.010086,107.660782 
z"/>
<path fill="#C3D3DB" opacity="1.000000" stroke="none" 
	d="
M108.989899,33.338737 
	C109.087830,33.339321 108.986435,33.652252 108.986435,33.652252 
	C108.986435,33.652252 108.891975,33.338150 108.989899,33.338737 
z"/>
<path fill="#C5D3DB" opacity="1.000000" stroke="none" 
	d="
M183.156006,34.444778 
	C183.202209,34.531628 182.822418,34.560856 182.822418,34.560856 
	C182.822418,34.560856 183.109802,34.357929 183.156006,34.444778 
z"/>
<path fill="#C2D2DA" opacity="1.000000" stroke="none" 
	d="
M230.993546,76.993813 
	C231.203796,76.806320 231.402542,76.602219 231.632477,76.443192 
	C231.688919,76.404160 231.847137,76.512314 231.958572,76.552795 
	C231.767883,76.690781 231.577194,76.828773 231.193176,76.983307 
	C230.999863,76.999847 230.993546,76.993813 230.993546,76.993813 
z"/>
<path fill="#C2D2DA" opacity="1.000000" stroke="none" 
	d="
M235.989685,75.338196 
	C236.087646,75.338760 235.986191,75.652130 235.986191,75.652130 
	C235.986191,75.652130 235.891724,75.337631 235.989685,75.338196 
z"/>
<path fill="#C2D2DA" opacity="1.000000" stroke="none" 
	d="
M231.001770,77.002792 
	C230.794250,77.192932 230.596283,77.396645 230.367203,77.555542 
	C230.310989,77.594528 230.153214,77.487091 230.042130,77.446968 
	C230.232224,77.309464 230.422333,77.171959 230.802994,77.014130 
	C230.993546,76.993813 230.999863,76.999847 231.001770,77.002792 
z"/>
<path fill="#C5D4DC" opacity="1.000000" stroke="none" 
	d="
M139.855164,78.407669 
	C139.921661,78.334137 140.155884,78.592339 140.155884,78.592339 
	C140.155884,78.592339 139.788681,78.481209 139.855164,78.407669 
z"/>
<path fill="#C3D3DB" opacity="1.000000" stroke="none" 
	d="
M241.856400,65.408127 
	C241.922348,65.335068 242.154633,65.591690 242.154633,65.591690 
	C242.154633,65.591690 241.790451,65.481194 241.856400,65.408127 
z"/>
<path fill="#C2D2DA" opacity="1.000000" stroke="none" 
	d="
M222.142517,79.591354 
	C222.076981,79.664017 221.846222,79.408684 221.846222,79.408684 
	C221.846222,79.408684 222.208038,79.518684 222.142517,79.591354 
z"/>
<path fill="#C1D1DA" opacity="1.000000" stroke="none" 
	d="
M217.844147,33.555305 
	C217.798126,33.468449 218.177078,33.439022 218.177078,33.439022 
	C218.177078,33.439022 217.890152,33.642162 217.844147,33.555305 
z"/>
<path fill="#C2D2DA" opacity="1.000000" stroke="none" 
	d="
M204.857361,82.408562 
	C204.922958,82.335815 205.154007,82.591393 205.154007,82.591393 
	C205.154007,82.591393 204.791748,82.481308 204.857361,82.408562 
z"/>
<path fill="#C2D2DA" opacity="1.000000" stroke="none" 
	d="
M195.142502,84.591385 
	C195.076950,84.664085 194.846085,84.408638 194.846085,84.408638 
	C194.846085,84.408638 195.208054,84.518684 195.142502,84.591385 
z"/>
<path fill="#C3D3DB" opacity="1.000000" stroke="none" 
	d="
M112.842628,32.555641 
	C112.796104,32.468227 113.178284,32.438560 113.178284,32.438560 
	C113.178284,32.438560 112.889153,32.643055 112.842628,32.555641 
z"/>
<path fill="#C1D1DA" opacity="1.000000" stroke="none" 
	d="
M221.856720,32.408165 
	C221.922562,32.334984 222.154785,32.591923 222.154785,32.591923 
	C222.154785,32.591923 221.790863,32.481342 221.856720,32.408165 
z"/>
<path fill="#C2D2DA" opacity="1.000000" stroke="none" 
	d="
M185.142639,86.591431 
	C185.077072,86.664154 184.846130,86.408684 184.846130,86.408684 
	C184.846130,86.408684 185.208191,86.518715 185.142639,86.591431 
z"/>
<path fill="#C5D3DB" opacity="1.000000" stroke="none" 
	d="
M145.856415,38.408276 
	C145.922409,38.335266 146.154739,38.591774 146.154739,38.591774 
	C146.154739,38.591774 145.790436,38.481285 145.856415,38.408276 
z"/>
<path fill="#C1D1DA" opacity="1.000000" stroke="none" 
	d="
M225.515594,31.490747 
	C225.526047,31.515186 225.505142,31.466309 225.515594,31.490747 
z"/>
<path fill="#C3D3DB" opacity="1.000000" stroke="none" 
	d="
M132.483246,33.509670 
	C132.472839,33.485245 132.493668,33.534096 132.483246,33.509670 
z"/>
<path fill="#C3D3DB" opacity="1.000000" stroke="none" 
	d="
M100.491142,36.484913 
	C100.515968,36.474636 100.466316,36.495190 100.491142,36.484913 
z"/>
<path fill="#C5D3DB" opacity="1.000000" stroke="none" 
	d="
M177.998779,35.999306 
	C177.998779,35.999306 178.192093,35.688038 178.192093,35.688038 
	C178.192093,35.688038 178.176300,35.916630 178.088150,35.958313 
	C178.000000,36.000000 177.998779,35.999306 177.998779,35.999306 
z"/>
<path fill="#C2D2DA" opacity="1.000000" stroke="none" 
	d="
M169.489212,113.484787 
	C169.513702,113.474640 169.464722,113.494926 169.489212,113.484787 
z"/>
<path fill="#C5D4DC" opacity="1.000000" stroke="none" 
	d="
M135.180496,77.256721 
	C135.058029,77.168709 135.515976,77.020554 135.750839,76.967873 
	C135.857605,77.251892 135.630035,77.395073 135.180496,77.256721 
z"/>
<path fill="#C2D2DA" opacity="1.000000" stroke="none" 
	d="
M225.485107,78.509232 
	C225.474823,78.485023 225.495377,78.533440 225.485107,78.509232 
z"/>
<path fill="#C2D2DA" opacity="1.000000" stroke="none" 
	d="
M140.489960,106.484657 
	C140.514572,106.474602 140.465363,106.494713 140.489960,106.484657 
z"/>
<path fill="#C5D3DB" opacity="1.000000" stroke="none" 
	d="
M178.000305,36.000481 
	C178.000626,36.000961 177.809402,36.312836 177.809402,36.312836 
	C177.809402,36.312836 177.824081,36.084698 177.911438,36.042000 
	C177.998779,35.999306 178.000000,36.000000 178.000305,36.000481 
z"/>
<path fill="#C3D3DB" opacity="1.000000" stroke="none" 
	d="
M129.516235,86.490875 
	C129.526489,86.515030 129.505997,86.466721 129.516235,86.490875 
z"/>
<path fill="#C3D3DB" opacity="1.000000" stroke="none" 
	d="
M110.491112,44.484871 
	C110.515953,44.474594 110.466270,44.495152 110.491112,44.484871 
z"/>
<path fill="#C3D3DB" opacity="1.000000" stroke="none" 
	d="
M184.353241,6.014742 
	C181.817383,6.353523 179.725388,6.685377 177.633408,7.017230 
	C188.880386,3.544657 200.082672,5.782352 211.264389,7.958448 
	C202.441956,7.308237 193.619537,6.658026 184.353241,6.014742 
z"/>
<path fill="#C5D4DC" opacity="1.000000" stroke="none" 
	d="
M25.318069,7.992496 
	C26.409361,7.006011 27.854279,6.011073 29.649488,5.007467 
	C28.557085,5.993881 27.114389,6.988962 25.318069,7.992496 
z"/>
<path fill="#C5D4DC" opacity="1.000000" stroke="none" 
	d="
M19.294611,15.830632 
	C19.803030,14.442665 20.608429,12.883389 21.707420,11.144403 
	C21.197870,12.529570 20.394730,14.094446 19.294611,15.830632 
z"/>
<path fill="#C3D3DB" opacity="1.000000" stroke="none" 
	d="
M170.154709,8.445399 
	C170.200378,8.531549 169.824097,8.560315 169.824097,8.560315 
	C169.824097,8.560315 170.109039,8.359249 170.154709,8.445399 
z"/>
<path fill="#C3D3DB" opacity="1.000000" stroke="none" 
	d="
M172.491013,7.485165 
	C172.515076,7.475338 172.466949,7.494992 172.491013,7.485165 
z"/>
<path fill="#B4CBD5" opacity="1.000000" stroke="none" 
	d="
M166.628754,73.698151 
	C164.668289,73.023216 163.078186,72.229965 161.488068,71.436714 
	C162.893112,70.038582 164.106323,68.284233 165.779160,67.383308 
	C166.701141,66.886765 168.395203,67.823868 169.741196,68.114639 
	C168.827164,69.936371 167.913132,71.758095 166.628754,73.698151 
z"/>
<path fill="#B4CBD5" opacity="1.000000" stroke="none" 
	d="
M82.855492,69.371933 
	C81.594971,72.690063 79.194908,75.208611 76.458336,73.559982 
	C74.318695,72.270973 72.482620,68.679153 72.506126,66.128922 
	C72.527565,63.804653 74.862831,60.994228 76.959518,59.479618 
	C77.666420,58.968967 81.297882,61.390934 82.599747,63.190834 
	C83.553940,64.510033 82.887314,67.001579 82.855492,69.371933 
z"/>
<path fill="#AFC0CA" opacity="1.000000" stroke="none" 
	d="
M137.929199,97.532608 
	C138.375641,99.035118 138.471283,100.349548 138.397873,101.960999 
	C136.908798,102.507172 135.588760,102.756332 133.787598,103.096313 
	C134.008026,99.889412 132.024124,96.108109 137.929199,97.532608 
z"/>
</svg>