<svg version="1.1" id="Layer_1" xmlns="http://www.w3.org/2000/svg" xmlns:xlink="http://www.w3.org/1999/xlink" x="0px" y="0px"
	 width="100%" viewBox="0 0 500 175" enable-background="new 0 0 500 175" xml:space="preserve">
<path fill="#FEFEFE" opacity="1.000000" stroke="none" 
	d="
M316.000000,176.000000 
	C210.666702,176.000000 105.833405,176.000000 1.000084,176.000000 
	C1.000056,117.666725 1.000056,59.333450 1.000028,1.000131 
	C167.666550,1.000087 334.333099,1.000087 500.999725,1.000044 
	C500.999817,59.333195 500.999817,117.666389 500.999908,175.999786 
	C439.500000,176.000000 378.000000,176.000000 316.000000,176.000000 
M93.120842,92.078094 
	C91.135498,88.702988 89.854507,84.474098 87.016380,82.132698 
	C81.323364,77.436081 74.890656,73.587524 68.548843,69.742584 
	C64.163612,67.083900 59.130276,65.443352 54.908920,62.578213 
	C49.754475,59.079769 50.902988,51.927784 56.876461,50.145470 
	C60.082497,49.188873 63.867004,48.996441 67.131760,49.685329 
	C72.083519,50.730194 76.809959,52.842861 81.997696,54.627670 
	C84.591255,49.512550 87.336380,44.098511 90.568764,37.723484 
	C82.631371,34.763561 75.230789,32.003819 67.111328,28.976002 
	C67.111328,24.387257 67.111328,19.161978 67.111328,14.029995 
	C62.760628,14.029995 59.005707,14.029995 54.865665,14.029995 
	C54.865665,17.290819 54.659920,20.273140 54.912663,23.216085 
	C55.317440,27.929302 54.321976,30.490749 49.031757,32.556911 
	C30.513901,39.789295 25.095873,61.080860 38.086380,74.220169 
	C41.626278,77.800606 46.321918,80.330307 50.725979,82.939041 
	C55.290512,85.642815 60.204708,87.749161 64.853104,90.320824 
	C68.380875,92.272507 70.108910,95.296791 69.252121,99.486679 
	C68.370834,103.796356 65.152061,105.822762 61.373764,105.861626 
	C56.667244,105.910034 51.704960,105.557800 47.301266,104.060516 
	C42.384762,102.388870 37.970917,99.238846 33.105103,96.606079 
	C29.799547,102.118645 26.394371,107.797340 23.021980,113.421371 
	C28.942995,119.557861 37.137829,122.911438 54.855919,126.456848 
	C54.855919,131.432861 54.855919,136.519333 54.855919,141.770905 
	C59.226978,141.770905 63.121223,141.770905 67.364243,141.770905 
	C67.364243,136.194000 67.364243,130.904984 67.364243,125.500641 
	C68.427338,125.193710 69.194992,124.962112 69.968094,124.750389 
	C81.323112,121.640671 89.909828,115.692062 92.207161,103.206528 
	C92.284378,102.786873 93.085464,102.500404 93.518166,103.195023 
	C93.518166,120.776352 93.518166,138.357681 93.518166,155.935638 
	C100.729546,155.935638 107.286110,155.935638 114.086288,155.935638 
	C114.086288,149.817322 114.086281,144.007599 114.086281,138.197876 
	C114.086281,132.524292 114.086288,126.850716 114.086288,120.435997 
	C122.765121,127.498337 131.694443,129.115540 141.282593,126.831978 
	C151.142517,124.483696 157.230759,117.529892 162.171738,108.977303 
	C162.171738,114.568176 162.171738,120.159050 162.171738,125.766495 
	C169.109329,125.766495 175.694916,125.766495 182.485779,125.766495 
	C182.485779,92.451859 182.485779,59.374321 182.485779,26.101871 
	C175.573441,26.101871 168.887482,26.101871 161.879288,26.101871 
	C161.879288,45.318691 161.879288,64.206566 161.879288,84.507355 
	C157.172791,74.265564 150.869781,67.492165 140.950012,65.244247 
	C131.040680,62.998688 121.936714,64.998756 114.138382,72.698547 
	C113.967300,69.987175 113.855385,68.213570 113.743408,66.438957 
	C106.896965,66.438957 100.334244,66.438957 93.551620,66.438957 
	C93.551620,75.427322 93.551620,84.081902 93.120842,92.078094 
M389.934814,112.134697 
	C385.641998,110.229851 381.349182,108.325005 376.942230,106.369514 
	C374.974426,109.571815 372.932404,112.894913 370.890381,116.218018 
	C370.602051,116.136871 370.313721,116.055725 370.025391,115.974586 
	C370.025391,99.456955 370.025391,82.939323 370.025391,66.414909 
	C362.975555,66.414909 356.420258,66.414909 349.912231,66.414909 
	C349.607544,68.091843 349.359283,69.458076 349.031158,71.264038 
	C341.348480,64.973381 332.912659,63.387333 323.822876,65.031250 
	C314.347778,66.744858 308.074951,72.801964 303.249695,81.265732 
	C297.448395,70.109039 288.127289,65.286522 276.353180,64.518539 
	C264.637939,63.754398 255.100082,68.208572 246.719574,77.881416 
	C246.719574,73.244865 246.719574,69.852005 246.719574,66.069466 
	C242.330734,66.069466 238.405319,66.069466 233.941711,66.069466 
	C233.941711,58.455364 233.941711,51.242741 233.941711,44.100212 
	C226.915619,44.100212 220.448929,44.100212 213.402466,44.100212 
	C213.402466,51.456200 213.402466,58.663483 213.402466,66.279938 
	C203.906769,66.279938 194.986252,66.279938 185.991943,66.279938 
	C185.991943,86.317474 185.991943,105.923782 185.991943,125.642685 
	C192.845306,125.642685 199.532639,125.642685 206.482422,125.642685 
	C206.482422,110.994217 206.482422,96.705414 206.482422,82.282700 
	C208.970383,82.282700 211.179703,82.282700 213.654007,82.282700 
	C213.654007,90.615784 213.293793,98.628860 213.725616,106.599014 
	C214.768356,125.844315 232.565536,134.408401 248.812729,123.592384 
	C248.081451,120.842773 247.342331,118.063683 246.414932,114.576653 
	C267.079468,133.015106 287.363556,132.350800 304.519897,113.239868 
	C309.471436,120.818787 315.977631,125.966042 325.232910,127.386765 
	C334.519867,128.812347 342.410522,126.001350 349.685608,119.561691 
	C349.800262,122.167824 349.877899,123.932152 349.957855,125.749733 
	C356.756012,125.749733 363.329620,125.749733 369.876373,125.749733 
	C370.082092,124.158157 370.254669,122.823082 370.386017,121.806900 
	C374.584473,123.451286 378.335205,125.290855 382.290314,126.404793 
	C398.773376,131.047165 413.357422,125.901840 420.172211,113.280006 
	C438.932526,132.655991 469.283997,132.043365 478.805664,111.878807 
	C474.084625,109.517471 469.358673,107.153671 464.487091,104.717033 
	C458.423553,111.302368 451.252930,113.146500 443.167145,109.568634 
	C438.905182,107.682747 436.716003,104.128059 437.155487,98.792770 
	C451.601532,98.792770 465.858582,98.792770 480.076477,98.792770 
	C481.167694,80.687363 472.414612,68.209312 456.604248,65.216637 
	C448.052246,63.597862 439.659241,64.138931 431.931183,68.675461 
	C422.167114,74.407204 416.502502,82.934990 415.378326,93.695129 
	C408.928925,91.163979 402.714478,88.941101 396.721558,86.228699 
	C395.123749,85.505524 394.204254,83.283524 392.973328,81.749672 
	C394.702820,80.816887 396.508606,78.982254 398.147461,79.120895 
	C403.008514,79.532104 407.803802,80.721016 413.001984,81.675102 
	C414.915009,77.836494 417.026794,73.599007 419.353912,68.929527 
	C406.953247,63.855827 394.841705,62.071537 382.814331,68.015587 
	C370.642456,74.031067 369.554443,89.134605 380.535828,96.949837 
	C383.606049,99.134842 387.243652,100.533127 390.654266,102.225197 
	C392.584106,103.182648 394.825378,103.696754 396.461548,104.995956 
	C397.522705,105.838570 398.321106,107.806595 398.161072,109.141319 
	C398.032837,110.210709 396.433502,111.458344 395.214600,111.946030 
	C393.905487,112.469788 392.278381,112.198715 389.934814,112.134697 
M208.299026,39.200588 
	C205.471222,29.860111 196.151428,26.243200 189.018799,31.718142 
	C184.395386,35.267029 182.842804,41.184032 185.171112,46.381889 
	C187.470612,51.515392 193.202713,54.509937 198.614883,53.405167 
	C204.969345,52.108044 208.392059,47.428501 208.299026,39.200588 
z"/>
<path fill="#030303" opacity="1.000000" stroke="none" 
	d="
M390.362427,112.204590 
	C392.278381,112.198715 393.905487,112.469788 395.214600,111.946030 
	C396.433502,111.458344 398.032837,110.210709 398.161072,109.141319 
	C398.321106,107.806595 397.522705,105.838570 396.461548,104.995956 
	C394.825378,103.696754 392.584106,103.182648 390.654266,102.225197 
	C387.243652,100.533127 383.606049,99.134842 380.535828,96.949837 
	C369.554443,89.134605 370.642456,74.031067 382.814331,68.015587 
	C394.841705,62.071537 406.953247,63.855827 419.353912,68.929527 
	C417.026794,73.599007 414.915009,77.836494 413.001984,81.675102 
	C407.803802,80.721016 403.008514,79.532104 398.147461,79.120895 
	C396.508606,78.982254 394.702820,80.816887 392.973328,81.749664 
	C394.204254,83.283524 395.123749,85.505524 396.721558,86.228699 
	C402.714478,88.941101 408.928925,91.163979 415.378326,93.695129 
	C416.502502,82.934990 422.167114,74.407204 431.931183,68.675461 
	C439.659241,64.138931 448.052246,63.597862 456.604248,65.216637 
	C472.414612,68.209312 481.167694,80.687363 480.076477,98.792770 
	C465.858582,98.792770 451.601532,98.792770 437.155487,98.792770 
	C436.716003,104.128059 438.905182,107.682747 443.167145,109.568634 
	C451.252930,113.146500 458.423553,111.302368 464.487091,104.717033 
	C469.358673,107.153671 474.084625,109.517471 478.805664,111.878807 
	C469.283997,132.043365 438.932526,132.655991 420.172211,113.280006 
	C413.357422,125.901840 398.773376,131.047165 382.290314,126.404793 
	C378.335205,125.290855 374.584473,123.451286 370.386017,121.806900 
	C370.254669,122.823082 370.082092,124.158157 369.876373,125.749733 
	C363.329620,125.749733 356.756012,125.749733 349.957855,125.749733 
	C349.877899,123.932152 349.800262,122.167824 349.685608,119.561691 
	C342.410522,126.001350 334.519867,128.812347 325.232910,127.386765 
	C315.977631,125.966042 309.471436,120.818787 304.519897,113.239868 
	C287.363556,132.350800 267.079468,133.015106 246.414932,114.576653 
	C247.342331,118.063683 248.081451,120.842773 248.812729,123.592384 
	C232.565536,134.408401 214.768356,125.844315 213.725616,106.599014 
	C213.293793,98.628860 213.654007,90.615784 213.654007,82.282700 
	C211.179703,82.282700 208.970383,82.282700 206.482422,82.282700 
	C206.482422,96.705414 206.482422,110.994217 206.482422,125.642685 
	C199.532639,125.642685 192.845306,125.642685 185.991943,125.642685 
	C185.991943,105.923782 185.991943,86.317474 185.991943,66.279938 
	C194.986252,66.279938 203.906769,66.279938 213.402466,66.279938 
	C213.402466,58.663483 213.402466,51.456200 213.402466,44.100212 
	C220.448929,44.100212 226.915619,44.100212 233.941711,44.100212 
	C233.941711,51.242741 233.941711,58.455364 233.941711,66.069466 
	C238.405319,66.069466 242.330734,66.069466 246.719574,66.069466 
	C246.719574,69.852005 246.719574,73.244865 246.719574,77.881416 
	C255.100082,68.208572 264.637939,63.754398 276.353180,64.518539 
	C288.127289,65.286522 297.448395,70.109039 303.249695,81.265732 
	C308.074951,72.801964 314.347778,66.744858 323.822876,65.031250 
	C332.912659,63.387333 341.348480,64.973381 349.031158,71.264038 
	C349.359283,69.458076 349.607544,68.091843 349.912231,66.414909 
	C356.420258,66.414909 362.975555,66.414909 370.025391,66.414909 
	C370.025391,82.939323 370.025391,99.456955 370.025391,115.974586 
	C370.313721,116.055725 370.602051,116.136871 370.890381,116.218018 
	C372.932404,112.894913 374.974426,109.571815 376.942230,106.369514 
	C381.349182,108.325005 385.641998,110.229851 390.362427,112.204590 
M302.001984,110.733536 
	C302.204865,110.325928 302.407745,109.918320 302.412506,108.757912 
	C301.589478,105.566956 300.766449,102.375992 299.932709,99.143570 
	C287.456726,99.143570 275.052673,99.143570 262.669098,99.143570 
	C261.506989,110.524384 277.096375,114.680634 284.353851,108.964256 
	C289.684509,104.765533 293.443146,105.693756 298.107513,108.756264 
	C299.184509,109.463394 300.526550,109.766899 302.001984,110.733536 
M325.837524,86.381470 
	C324.994690,87.609131 323.955902,88.746742 323.343170,90.080124 
	C320.789856,95.636703 322.185089,102.780945 326.450012,106.658241 
	C330.559479,110.394142 337.740997,111.228569 342.825867,108.560928 
	C347.937500,105.879227 350.791534,99.853065 349.837402,93.756454 
	C348.108521,82.709808 335.945892,78.612503 325.837524,86.381470 
M237.823303,109.027687 
	C239.525970,108.756897 241.228638,108.486107 243.289291,108.158386 
	C239.838425,99.039047 240.446335,90.557121 244.024277,82.203979 
	C240.518890,82.203979 237.445282,82.203979 234.136887,82.203979 
	C234.136887,89.239418 233.916092,96.013702 234.269775,102.757851 
	C234.377640,104.814621 236.066437,106.788483 237.823303,109.027687 
M267.431732,79.658333 
	C265.762909,81.991859 264.094116,84.325378 261.985626,87.273712 
	C270.803223,87.273712 278.035583,87.273712 285.320343,87.273712 
	C283.652527,78.716270 277.332001,75.871613 267.431732,79.658333 
M459.539764,87.428673 
	C459.375916,81.563583 455.710510,78.081367 449.486603,77.877960 
	C442.461853,77.648384 438.541321,80.779037 437.984253,87.589172 
	C444.911957,87.589172 451.807037,87.589172 459.539764,87.428673 
z"/>
<path fill="#030303" opacity="1.000000" stroke="none" 
	d="
M93.551620,92.736481 
	C93.551620,84.081902 93.551620,75.427322 93.551620,66.438957 
	C100.334244,66.438957 106.896965,66.438957 113.743408,66.438957 
	C113.855385,68.213570 113.967300,69.987175 114.138382,72.698547 
	C121.936714,64.998756 131.040680,62.998688 140.950012,65.244247 
	C150.869781,67.492165 157.172791,74.265564 161.879288,84.507355 
	C161.879288,64.206566 161.879288,45.318691 161.879288,26.101871 
	C168.887482,26.101871 175.573441,26.101871 182.485779,26.101871 
	C182.485779,59.374321 182.485779,92.451859 182.485779,125.766495 
	C175.694916,125.766495 169.109329,125.766495 162.171738,125.766495 
	C162.171738,120.159050 162.171738,114.568176 162.171738,108.977303 
	C157.230759,117.529892 151.142517,124.483696 141.282593,126.831978 
	C131.694443,129.115540 122.765121,127.498337 114.086288,120.435997 
	C114.086288,126.850716 114.086281,132.524292 114.086281,138.197876 
	C114.086281,144.007599 114.086288,149.817322 114.086288,155.935638 
	C107.286110,155.935638 100.729546,155.935638 93.518166,155.935638 
	C93.518166,138.357681 93.518166,120.776352 93.693054,102.356880 
	C93.762505,98.591316 93.657066,95.663902 93.551620,92.736481 
M133.121338,109.043037 
	C139.125122,106.303162 141.744263,101.501495 141.438721,95.057617 
	C141.171234,89.416260 138.526627,85.235123 133.211395,83.065498 
	C127.385895,80.687561 120.594948,82.336967 116.849525,86.862045 
	C113.142754,91.340431 112.682953,98.666649 115.793335,103.690674 
	C119.186150,109.170891 124.822510,111.075882 133.121338,109.043037 
z"/>
<path fill="#06BE66" opacity="1.000000" stroke="none" 
	d="
M93.336227,92.407288 
	C93.657066,95.663902 93.762505,98.591316 93.708542,101.835297 
	C93.085464,102.500404 92.284378,102.786873 92.207161,103.206528 
	C89.909828,115.692062 81.323112,121.640671 69.968094,124.750389 
	C69.194992,124.962112 68.427338,125.193710 67.364243,125.500641 
	C67.364243,130.904984 67.364243,136.194000 67.364243,141.770905 
	C63.121223,141.770905 59.226978,141.770905 54.855919,141.770905 
	C54.855919,136.519333 54.855919,131.432861 54.855919,126.456848 
	C37.137829,122.911438 28.942995,119.557861 23.021980,113.421371 
	C26.394371,107.797340 29.799547,102.118645 33.105103,96.606079 
	C37.970917,99.238846 42.384762,102.388870 47.301266,104.060516 
	C51.704960,105.557800 56.667244,105.910034 61.373764,105.861626 
	C65.152061,105.822762 68.370834,103.796356 69.252121,99.486679 
	C70.108910,95.296791 68.380875,92.272507 64.853104,90.320824 
	C60.204708,87.749161 55.290512,85.642815 50.725979,82.939041 
	C46.321918,80.330307 41.626278,77.800606 38.086380,74.220169 
	C25.095873,61.080860 30.513901,39.789295 49.031757,32.556911 
	C54.321976,30.490749 55.317440,27.929302 54.912663,23.216085 
	C54.659920,20.273140 54.865665,17.290819 54.865665,14.029995 
	C59.005707,14.029995 62.760628,14.029995 67.111328,14.029995 
	C67.111328,19.161978 67.111328,24.387257 67.111328,28.976002 
	C75.230789,32.003819 82.631371,34.763561 90.568764,37.723484 
	C87.336380,44.098511 84.591255,49.512550 81.997696,54.627670 
	C76.809959,52.842861 72.083519,50.730194 67.131760,49.685329 
	C63.867004,48.996441 60.082497,49.188873 56.876461,50.145470 
	C50.902988,51.927784 49.754475,59.079769 54.908920,62.578213 
	C59.130276,65.443352 64.163612,67.083900 68.548843,69.742584 
	C74.890656,73.587524 81.323364,77.436081 87.016380,82.132698 
	C89.854507,84.474098 91.135498,88.702988 93.336227,92.407288 
z"/>
<path fill="#070707" opacity="1.000000" stroke="none" 
	d="
M208.372421,39.582443 
	C208.392059,47.428501 204.969345,52.108044 198.614883,53.405167 
	C193.202713,54.509937 187.470612,51.515392 185.171112,46.381889 
	C182.842804,41.184032 184.395386,35.267029 189.018799,31.718142 
	C196.151428,26.243200 205.471222,29.860111 208.372421,39.582443 
z"/>
<path fill="#FBFBFB" opacity="1.000000" stroke="none" 
	d="
M326.101746,86.115494 
	C335.945892,78.612503 348.108521,82.709808 349.837402,93.756454 
	C350.791534,99.853065 347.937500,105.879227 342.825867,108.560928 
	C337.740997,111.228569 330.559479,110.394142 326.450012,106.658241 
	C322.185089,102.780945 320.789856,95.636703 323.343170,90.080124 
	C323.955902,88.746742 324.994690,87.609131 326.101746,86.115494 
z"/>
<path fill="#FBFBFB" opacity="1.000000" stroke="none" 
	d="
M301.746613,110.256142 
	C300.526550,109.766899 299.184509,109.463394 298.107513,108.756264 
	C293.443146,105.693756 289.684509,104.765533 284.353851,108.964256 
	C277.096375,114.680634 261.506989,110.524384 262.669098,99.143570 
	C275.052673,99.143570 287.456726,99.143570 299.932709,99.143570 
	C300.766449,102.375992 301.589478,105.566956 302.287048,109.310814 
	C302.023254,109.994522 301.884918,110.125336 301.746613,110.256142 
z"/>
<path fill="#F7F7F7" opacity="1.000000" stroke="none" 
	d="
M237.427261,108.914001 
	C236.066437,106.788483 234.377640,104.814621 234.269775,102.757851 
	C233.916092,96.013702 234.136887,89.239418 234.136887,82.203979 
	C237.445282,82.203979 240.518890,82.203979 244.024277,82.203979 
	C240.446335,90.557121 239.838425,99.039047 243.289291,108.158386 
	C241.228638,108.486107 239.525970,108.756897 237.427261,108.914001 
z"/>
<path fill="#ECECEC" opacity="1.000000" stroke="none" 
	d="
M267.751404,79.429848 
	C277.332001,75.871613 283.652527,78.716270 285.320343,87.273712 
	C278.035583,87.273712 270.803223,87.273712 261.985626,87.273712 
	C264.094116,84.325378 265.762909,81.991859 267.751404,79.429848 
z"/>
<path fill="#ECECEC" opacity="1.000000" stroke="none" 
	d="
M459.120911,87.508926 
	C451.807037,87.589172 444.911957,87.589172 437.984253,87.589172 
	C438.541321,80.779037 442.461853,77.648384 449.486603,77.877960 
	C455.710510,78.081367 459.375916,81.563583 459.120911,87.508926 
z"/>
<path fill="#FBFBFB" opacity="1.000000" stroke="none" 
	d="
M302.386108,109.687210 
	C302.407745,109.918320 302.204865,110.325928 301.874298,110.494843 
	C301.884918,110.125336 302.023254,109.994522 302.386108,109.687210 
z"/>
<path fill="#FBFBFB" opacity="1.000000" stroke="none" 
	d="
M132.741028,109.166603 
	C124.822510,111.075882 119.186150,109.170891 115.793335,103.690674 
	C112.682953,98.666649 113.142754,91.340431 116.849525,86.862045 
	C120.594948,82.336967 127.385895,80.687561 133.211395,83.065498 
	C138.526627,85.235123 141.171234,89.416260 141.438721,95.057617 
	C141.744263,101.501495 139.125122,106.303162 132.741028,109.166603 
z"/>
</svg>